<?xml version="1.0" encoding="utf-8"?>
<!-- Generator: Adobe Illustrator 19.0.0, SVG Export Plug-In . SVG Version: 6.00 Build 0)  -->
<svg version="1.1" id="Layer_1" xmlns="http://www.w3.org/2000/svg" xmlns:xlink="http://www.w3.org/1999/xlink" x="0px" y="0px"
	 viewBox="-113 240.1 368 362.8" style="enable-background:new -113 240.1 368 362.8;" xml:space="preserve">
<style type="text/css">
	.st0{fill:#ffffff;}
</style>
<g>
	<path class="st0" d="M222.9,422c-0.7-0.9-1.4-1.9-2.2-2.9c-1.6-2.2-3.2-4.4-5.1-6.4c-39.9-41.3-72.5-75-102.6-105.9
		c-8.5-8.7-17.3-17.5-25.7-26c-3.9-3.9-7.9-7.9-11.8-11.8c-0.5-0.5-1.1-0.7-1.8-0.7h-5.6c-0.6,0-1.1,0.2-1.6,0.6
		c-0.7,0.5-1.3,1.1-2,1.6c-1.5,1.2-3.1,2.4-4.5,3.9C30.9,304.3,2.5,333.6-25.9,363c-12.7,13.2-25.6,26.6-38,39.7
		c-5.7,5.9-11.4,11.9-17,17.8c-0.4,0.5-0.7,1.1-0.7,1.7v8.3c0,0.7,0.3,1.4,0.9,1.9c9,7.9,14.4,5.3,22.5-3.1
		c26.6-27.6,53.3-55.2,80-82.8l39-40.4c2.8-2.8,5.5-5.7,7.6-8l0.5-0.5c3.2,2.9,6.4,5.7,9.5,8.5c8.1,7.2,15.7,13.9,22.9,21.3
		c21.3,21.7,42.8,44,63.6,65.5c12.5,12.9,25.4,26.3,38.2,39.5c2.7,2.7,5.9,5.5,9.6,5.5c0.2,0,0.3,0,0.5,0c4-0.2,7-3.6,9.8-7.2
		c0.3-0.4,0.5-1,0.5-1.5v-5.6C223.4,423,223.4,422.5,222.9,422z"/>
	<path class="st0" d="M178.4,437.7c-4.1,0-8.9,1.7-11.8,4.4c-3.2,2.9-3.5,8.8-3.5,10.6c-0.1,16.8-0.1,33.9-0.1,50.5
		c0,12.8,0,26-0.1,39c0,8.7-4.4,13.1-12.9,13.1c-43.3,0.1-100.5,0.1-158.9-0.1c-2.7,0-5.7-1.4-7.8-2.5c-4.6-2.4-4.8-6.4-4.8-12.8
		v-14.7c0-25.5,0.1-51.8-0.2-77.7c0-3-2.4-10.2-6.2-10.6c-4.2-0.5-9,1.9-11.6,4.4c-3.1,3.1-3.4,8.9-3.4,10.6
		c-0.2,33.3-0.1,66.7-0.1,97.9c0,15.1,9.9,24.8,25.2,24.8c11.2,0,22.3,0,33.5,0c13.7,0,27.5,0,41.2,0h13.4c10.8,0,21.5,0,32.3,0
		c18.8,0,37.7,0,56.5,0c15.1,0,25.2-10,25.3-24.8c0.1-30.6,0.1-66.2-0.1-101.3C184.4,445.8,182.4,437.8,178.4,437.7z"/>
</g>
</svg>
