<?xml version="1.0" encoding="utf-8"?>
<!-- Generator: Adobe Illustrator 19.0.0, SVG Export Plug-In . SVG Version: 6.00 Build 0)  -->
<svg version="1.1" id="Layer_1" xmlns="http://www.w3.org/2000/svg" xmlns:xlink="http://www.w3.org/1999/xlink" x="0px" y="0px"
	 viewBox="0 0 68.9 97.5" style="enable-background:new 0 0 68.9 97.5;" xml:space="preserve">
<style type="text/css">
	.st0{fill:#231F20;}
</style>
<g id="XMLID_682_">
	<polygon id="XMLID_747_" class="st0" points="66.4,61.7 66.4,61.7 66.4,61.7 	"/>
	<polygon id="XMLID_743_" class="st0" points="2.8,35.3 2.8,35.3 2.8,35.3 	"/>
	<path id="XMLID_740_" class="st0" d="M47.4,13.1L22.5,37.9l-21,21c1.2,3.9,3.1,7.6,5.7,11L37.1,40l18.6-18.6L47.4,13.1z"/>
	<path id="XMLID_737_" class="st0" d="M7.4,67.5c-1.7-2.5-3.1-5.2-4.1-8.1l44-44l6.1,6.1L7.4,67.5z"/>
	<path id="XMLID_733_" class="st0" d="M61.2,27.2L31.4,57L12.7,75.8l8.4,8.4L46.2,59l21-21C65.9,34.2,63.9,30.5,61.2,27.2z"/>
	<path id="XMLID_730_" class="st0" d="M14.9,75.8l46.1-46.1c1.8,2.4,3.2,5.1,4.2,8L21,81.9L14.9,75.8z"/>
	<path id="XMLID_725_" class="st0" d="M34.3,0L10.1,24.5c-3.2,3.2-5.6,6.9-7.3,10.8l0,0C0.9,39.7,0,44.4,0,49.1l24.8-24.8L41.7,7.4
		L34.3,0z"/>
	<path id="XMLID_722_" class="st0" d="M1.8,45c0.4-3.1,1.2-6.2,2.4-9.1l0-0.1c1.6-3.8,4-7.3,6.9-10.3L34.3,2.3l5.1,5.1L1.8,45z"/>
	<path id="XMLID_715_" class="st0" d="M68.8,47.6L43.5,73L26.7,89.8l7.7,7.7l24.4-24.3c3.4-3.4,5.9-7.3,7.6-11.5l0,0
		C68.2,57.2,69,52.4,68.8,47.6z"/>
	<path id="XMLID_711_" class="st0" d="M29,89.8l38.2-38.2c-0.3,3.2-1,6.4-2.2,9.5l-0.1,0.1c-1.7,4.1-4.1,7.7-7.2,10.8L34.4,95.3
		L29,89.8z"/>
	<polygon id="XMLID_700_" class="st0" points="24.8,24.3 0,49.1 7.2,45.5 47.4,13.1 	"/>
	<polygon id="XMLID_697_" class="st0" points="47.4,13.1 7.2,45.5 22.5,37.9 	"/>
	<polygon id="XMLID_694_" class="st0" points="37.1,40 7.2,69.9 16.9,64.8 61.2,27.2 	"/>
	<polygon id="XMLID_690_" class="st0" points="61.2,27.2 16.9,64.8 31.4,57 	"/>
	<polygon id="XMLID_686_" class="st0" points="46.2,59 21,84.1 32.4,78.5 68.8,47.6 	"/>
	<polygon id="XMLID_683_" class="st0" points="68.8,47.6 32.4,78.5 43.5,73 	"/>
</g>
</svg>
