<?xml version="1.0" encoding="utf-8"?>
<!-- Generator: Adobe Illustrator 19.0.0, SVG Export Plug-In . SVG Version: 6.00 Build 0)  -->
<svg version="1.1" id="Layer_1" xmlns="http://www.w3.org/2000/svg" xmlns:xlink="http://www.w3.org/1999/xlink" x="0px" y="0px"
	 viewBox="0 0 82.3 104.2" style="enable-background:new 0 0 82.3 104.2;" xml:space="preserve">
<style type="text/css">
	.st0{fill:#FFFFFF;}
</style>
<g id="XMLID_270_">
	<path id="XMLID_736_" class="st0" d="M10,57.4c0-11.9,0-23.7,0-35.6c0-5.2,3.2-9.5,8.1-10.8c0.9-0.3,1.9-0.4,2.9-0.4
		c16.8,0,33.5,0,50.3,0c6.2,0,11,5,11,11.2c0,13.6,0,27.1,0,40.7c0,10.1,0,20.2,0,30.3c0,6.5-4.9,11.4-11.3,11.4
		c-16.5,0-33.1,0-49.6,0c-6.4,0-11.3-4.9-11.3-11.3C10,81.1,10,69.3,10,57.4z M15.5,57.4c0,11.8,0,23.6,0,35.4
		c0,3.6,2.4,5.9,5.9,5.9c16.5,0,33,0,49.5,0c3.5,0,5.9-2.4,5.9-5.9c0-23.6,0-47.3,0-70.9c0-0.4,0-0.7-0.1-1.1
		C76.3,18,74,16.1,71,16.1c-16.5,0-33,0-49.5,0c-3.5,0-6.1,2.6-6,6C15.6,33.9,15.5,45.7,15.5,57.4z"/>
	<path id="XMLID_735_" class="st0" d="M0,50.7c0-13.1,0-26.3,0-39.4C0,4.9,4.9,0,11.3,0c19.3,0,38.6,0,58,0c2.1,0,3.5,1.7,2.9,3.6
		c-0.3,1.1-1.3,1.9-2.5,2c-0.3,0-0.5,0-0.8,0c-19.1,0-38.3,0-57.4,0c-3.6,0-6,2.3-6,6c0,26.4,0,52.7,0,79.1c0,1.9-1.2,3.1-2.9,3
		C1.2,93.5,0.1,92.5,0,91c0-0.3,0-0.6,0-0.9C0,77,0,63.8,0,50.7z"/>
	<path id="XMLID_652_" class="st0" d="M46.6,38.4c-7.3,0-14.6,0-21.9,0c-1.4,0-2.5-1-2.7-2.3c-0.2-1.4,0.5-2.7,1.8-3
		c0.4-0.1,0.9-0.1,1.4-0.1c14.1,0,28.2,0,42.2,0c0.4,0,0.9,0,1.3,0c1.5,0.1,2.6,1.3,2.6,2.8c-0.1,1.5-1.2,2.7-2.8,2.7
		c-4.1,0-8.3,0-12.4,0C53,38.4,49.8,38.4,46.6,38.4z"/>
	<path id="XMLID_651_" class="st0" d="M46.7,65.8c7.3,0,14.6,0,21.8,0c1.3,0,2.3,0.8,2.7,1.9c0.3,1.2-0.1,2.5-1.1,3.1
		c-0.5,0.3-1.2,0.5-1.7,0.5c-14.5,0-29,0-43.5,0c-1.6,0-2.7-1-2.9-2.4c-0.2-1.4,0.7-2.6,2-3c0.3-0.1,0.7-0.1,1-0.1
		C32.2,65.8,39.5,65.8,46.7,65.8z"/>
	<path id="XMLID_650_" class="st0" d="M46.7,49.4c-7.3,0-14.6,0-21.9,0c-2.2,0-3.5-2.2-2.5-4c0.5-0.8,1.2-1.3,2.2-1.4
		c0.2,0,0.5,0,0.7,0c14.3,0,28.7,0,43,0c1.7,0,2.8,0.8,3.1,2.3c0.3,1.7-0.9,3.2-2.7,3.2c-3.8,0-7.6,0-11.4,0
		C53.7,49.4,50.2,49.4,46.7,49.4z"/>
	<path id="XMLID_649_" class="st0" d="M46.7,54.9c7.3,0,14.6,0,21.8,0c2.1,0,3.4,1.9,2.6,3.8c-0.4,1-1.2,1.6-2.3,1.7
		c-0.2,0-0.5,0-0.7,0c-14.3,0-28.5,0-42.8,0c-0.5,0-0.9,0-1.4-0.1c-1.3-0.3-2.1-1.6-2-3c0.2-1.4,1.3-2.3,2.8-2.3
		C32,54.9,39.4,54.9,46.7,54.9z"/>
	<path id="XMLID_648_" class="st0" d="M35.7,76.8c3.7,0,7.3,0,11,0c1.4,0,2.5,1,2.7,2.3c0.2,1.4-0.5,2.6-1.8,3.1
		c-0.3,0.1-0.7,0.2-1,0.2c-7.2,0-14.4,0-21.6,0c-1.6,0-2.7-1-2.9-2.4c-0.2-1.4,0.7-2.6,2-3c0.3-0.1,0.7-0.1,1-0.1
		C28.6,76.8,32.1,76.8,35.7,76.8z"/>
</g>
</svg>
