<?xml version="1.0" encoding="utf-8"?>
<!-- Generator: Adobe Illustrator 19.0.0, SVG Export Plug-In . SVG Version: 6.00 Build 0)  -->
<svg version="1.1" id="Layer_1" xmlns="http://www.w3.org/2000/svg" xmlns:xlink="http://www.w3.org/1999/xlink" x="0px" y="0px"
	 viewBox="-255 347 100 100" style="enable-background:new -255 347 100 100;" xml:space="preserve">
<style type="text/css">
	.st0{fill:url(#XMLID_2_);}
	.st1{fill:#FFFFFF;}
</style>
<g id="XMLID_2103_">
	<g id="XMLID_2776_">
		
			<linearGradient id="XMLID_2_" gradientUnits="userSpaceOnUse" x1="-226.5298" y1="369.7" x2="-183.9777" y2="369.7" gradientTransform="matrix(1 0 0 1 0 8)">
			<stop  offset="3.150902e-002" style="stop-color:#DE2D63"/>
			<stop  offset="1" style="stop-color:#96247B"/>
		</linearGradient>
		<path id="XMLID_2780_" class="st0" d="M-189.3,387.6c3.3-3.7,5.2-8.6,5.2-14c0-11.8-9.5-21.3-21.3-21.3s-21.3,9.5-21.3,21.3
			c0,11.1,8.5,20.2,19.4,21.2v8.3l13.4-11C-191.9,390.5-190.4,389.1-189.3,387.6L-189.3,387.6L-189.3,387.6z"/>
		<g id="XMLID_2777_">
			<path id="XMLID_2778_" class="st1" d="M-205.2,362.9c1.5,0,3,0.2,4.4,0.7s2.6,1.2,3.7,2.1c1,0.9,1.9,1.9,2.5,3.1s1,2.5,1,3.9v7.8
				c0,0.7-0.3,1.4-0.9,1.9s-1.3,0.8-2.2,0.8s-1.6-0.2-2.2-0.7s-0.9-1.1-0.9-1.9V373c0-0.6-0.1-1.3-0.4-1.8c-0.3-0.6-0.7-1.1-1.1-1.5
				c-0.5-0.4-1.1-0.8-1.7-1c-0.7-0.3-1.4-0.4-2.1-0.4s-1.4,0.1-2,0.4c-0.6,0.2-1.2,0.6-1.7,0.9c-0.5,0.4-0.9,0.9-1.1,1.4
				c-0.3,0.6-0.4,1.2-0.4,1.8v7.7c0,0.7-0.3,1.4-1,1.9c-0.6,0.5-1.4,0.8-2.2,0.8s-1.6-0.3-2.2-0.8s-1-1.1-1-1.9v-7.6
				c0-1.4,0.3-2.7,0.9-4c0.6-1.2,1.4-2.3,2.4-3.2s2.2-1.7,3.6-2.2C-208.4,363.2-206.8,362.9-205.2,362.9z"/>
		</g>
	</g>
	<g id="XMLID_2234_">
		<path id="XMLID_2774_" class="st1" d="M-245.9,423.8h-6v-2.2h14.6v2.2h-6v17.6h-2.6V423.8z"/>
		<path id="XMLID_2772_" class="st1" d="M-235.4,420.6h2.6v8.8h0.1c0.4-0.7,1.1-1.4,1.8-1.8c0.8-0.4,1.7-0.7,2.6-0.7
			c1.9,0,4.9,1.2,4.9,6.1v8.4h-2.6v-8.1c0-2.3-0.8-4.2-3.3-4.2c-1.7,0-3,1.2-3.5,2.6c-0.1,0.4-0.2,0.7-0.2,1.2v8.5h-2.6v-20.8
			H-235.4z"/>
		<path id="XMLID_2250_" class="st1" d="M-217.9,434.8c0.1,3.5,2.3,4.9,4.9,4.9c1.8,0,3-0.3,3.9-0.7l0.4,1.8
			c-0.9,0.4-2.5,0.9-4.7,0.9c-4.4,0-7-2.9-7-7.1s2.5-7.6,6.6-7.6c4.6,0,5.9,4.1,5.9,6.7c0,0.5-0.1,0.9-0.1,1.2L-217.9,434.8
			L-217.9,434.8L-217.9,434.8z M-210.4,432.9c0-1.6-0.7-4.2-3.6-4.2c-2.6,0-3.7,2.4-3.9,4.2H-210.4z"/>
		<path id="XMLID_2248_" class="st1" d="M-204.4,441.4v-19.8h2.8l6.3,10c1.5,2.3,2.6,4.4,3.5,6.4h0.1c-0.3-2.6-0.3-5-0.3-8.1v-8.3
			h2.4v19.7h-2.6l-6.3-10c-1.4-2.2-2.7-4.4-3.7-6.6h-0.1c0.1,2.5,0.2,4.9,0.2,8.1v8.4h-2.3L-204.4,441.4L-204.4,441.4z"/>
		<path id="XMLID_2246_" class="st1" d="M-173.4,437.5c0,1.5,0,2.8,0.1,3.9h-2.3l-0.1-2.3h-0.1c-0.7,1.1-2.2,2.6-4.7,2.6
			c-2.2,0-4.9-1.2-4.9-6.2v-8.3h2.6v7.8c0,2.7,0.8,4.5,3.2,4.5c1.7,0,2.9-1.2,3.4-2.3c0.1-0.4,0.2-0.8,0.2-1.3v-8.7h2.6V437.5
			L-173.4,437.5z"/>
		<path id="XMLID_2244_" class="st1" d="M-167.9,427.2l2,3c0.5,0.8,1,1.5,1.4,2.3h0.1c0.5-0.8,0.9-1.6,1.4-2.3l2-3h2.8l-4.8,6.8
			l5,7.3h-3l-2.1-3.2c-0.6-0.8-1-1.6-1.5-2.5h-0.1c-0.5,0.8-1,1.6-1.5,2.5l-2,3.2h-2.8l5-7.2l-4.8-6.9
			C-170.9,427.2-167.9,427.2-167.9,427.2z"/>
	</g>
</g>
</svg>
