<?xml version="1.0" encoding="utf-8"?>
<!-- Generator: Adobe Illustrator 19.0.0, SVG Export Plug-In . SVG Version: 6.00 Build 0)  -->
<svg version="1.1" id="Layer_1" xmlns="http://www.w3.org/2000/svg" xmlns:xlink="http://www.w3.org/1999/xlink" x="0px" y="0px"
	 viewBox="15.5 346.6 100 100" style="enable-background:new 15.5 346.6 100 100;" xml:space="preserve">
<style type="text/css">
	.st0{fill:#F7931A;}
</style>
<g>
	<path class="st0" d="M61.4,397.2l-2.9,11.5c3.5,0.9,14.4,4.4,16-2.1C76.2,399.8,64.9,398,61.4,397.2z"/>
	<path class="st0" d="M65.3,381.5l-2.6,10.4c2.9,0.7,12,3.7,13.5-2.2C77.7,383.6,68.2,382.2,65.3,381.5z"/>
	<path class="st0" d="M77,350.5c-25.4-6.3-51.2,9.1-57.6,34.6c-6.3,25.4,9.1,51.2,34.6,57.6c25.5,6.3,51.2-9.1,57.6-34.6
		C117.9,382.6,102.4,356.9,77,350.5z M86.4,389.8c-0.7,4.6-3.2,6.9-6.7,7.7c4.7,2.4,7.1,6.2,4.8,12.6c-2.8,8-9.5,8.7-18.4,7
		l-2.2,8.6l-5.2-1.3L61,416c-1.4-0.3-2.7-0.7-4.2-1.1l-2.1,8.6l-5.2-1.3l2.2-8.7c-1.2-0.3-2.5-0.6-3.7-1l-6.8-1.7l2.6-6
		c0,0,3.8,1,3.8,0.9c1.5,0.4,2.1-0.6,2.4-1.2l3.4-13.7c0.2,0,0.4,0.1,0.6,0.1c-0.2-0.1-0.4-0.1-0.5-0.2l2.4-9.8
		c0.1-1.1-0.3-2.5-2.4-3c0.1-0.1-3.8-0.9-3.8-0.9l1.4-5.6l7.2,1.8l0,0c1.1,0.3,2.2,0.5,3.3,0.8l2.1-8.6l5.2,1.3l-2.1,8.4
		c1.4,0.3,2.8,0.6,4.2,1l2.1-8.3l5.2,1.3l-2.1,8.6C82.6,380.1,87.4,383.5,86.4,389.8z"/>
</g>
</svg>
