<?xml version="1.0" encoding="utf-8"?>
<!-- Generator: Adobe Illustrator 19.0.0, SVG Export Plug-In . SVG Version: 6.00 Build 0)  -->
<svg version="1.1" id="Layer_1" xmlns="http://www.w3.org/2000/svg" xmlns:xlink="http://www.w3.org/1999/xlink" x="0px" y="0px"
	 viewBox="0 0 469.8 341.6" style="enable-background:new 0 0 469.8 341.6;" xml:space="preserve">
<style type="text/css">
	.st0{fill:#FFFFFF;}
</style>
<path class="st0" d="M234.7,341.6c11.5,0,23,0.1,34.5,0c38.1-0.2,76.3,0.1,114.4-1c20.5-0.6,39.6-7.3,56.1-19.9
	c15.8-12.1,26.3-27.7,29.7-47.6c2-11.9-2.3-17.1-14.1-17.1c-47.2,0-94.3,0-141.5,0c-8.1,0-15.4,2.3-21.9,7c-5.5,4-11.1,8-16.8,11.7
	c-1.8,1.2-4.2,2-6.4,2c-14.8,0.3-29.7-0.6-44.4,0.7c-16.8,1.5-31.1-2.4-43.4-14c-0.2-0.2-0.5-0.4-0.8-0.6c-6.6-4.8-13.9-6.9-22-6.9
	c-46.8,0-93.6,0.3-140.5-0.2c-17.6-0.2-19.1,7.6-16.5,20.8c0,0.2,0.1,0.3,0.1,0.5c6.3,25.5,22.5,42.6,45.6,53.6
	c17.2,8.2,35.6,10.8,54.4,10.8C145.7,341.6,190.2,341.6,234.7,341.6z M234.7,21.6c45.3,0,90.7,0,136,0c2.3,0,4.7,0,7,0.2
	c12.7,1,22.8,9,26.1,21.3c1.2,4.3,1.6,8.9,1.6,13.3c0.1,57.2,0.1,114.3,0.1,171.5c0,2.8-0.1,5.7,0.2,8.5c0.7,6.4,7,10.4,13.2,8.7
	c5.4-1.5,7.9-5.4,7.9-12.3c0-59.3,0-118.7,0-178c0-29.7-24.6-54.7-54.3-54.7C280.6,0,188.7,0,96.9,0.1c-29.6,0-54.2,25-54.2,54.7
	c0,59,0,118,0,177c0,1.5-0.1,3,0.1,4.5c0.8,5.4,5.5,9.4,10.8,9.2c5.4-0.1,9.8-4.3,10.2-9.7c0.2-2.7,0.1-5.3,0.1-8c0-57,0-114,0-171
	c0-4.1,0.2-8.4,1.2-12.4C68.5,29.9,80,21.6,96.7,21.6C142.7,21.5,188.7,21.6,234.7,21.6z M213.4,213.5c4.8-0.1,8.5-3,10.4-8.6
	c6.5-19.4,13-38.8,19.5-58.2c7.5-22.6,15-45.1,22.5-67.7c2.3-7.1-0.9-13.2-7.7-14.6c-5.6-1.2-10.4,1.8-12.5,8
	c-7.7,22.9-15.3,45.7-22.9,68.6c-6.4,19.2-12.9,38.5-19.2,57.8C201,206.5,205.9,213.6,213.4,213.5z M153.8,139
	c1.6-1.7,2.6-2.9,3.8-4.1c10-10,20-20,30-30.1c5.3-5.3,5.7-11.9,1.2-16.3c-4.5-4.5-11-4-16.3,1.3c-13.3,13.3-26.7,26.6-39.9,39.9
	c-6.2,6.3-6.2,11.8,0.1,18.1c13.2,13.2,26.4,26.4,39.6,39.6c0.8,0.8,1.6,1.7,2.6,2.4c3.7,2.8,8.9,3,12.6,0.4c4-2.8,5.4-6.9,4.1-11.4
	c-0.7-2.4-2.5-4.7-4.3-6.5C176.3,161.3,165.3,150.4,153.8,139z M315.7,138.9c-11.6,11.6-22.8,22.6-33.8,33.7
	c-5.3,5.3-5.9,11.8-1.5,16.3c4.5,4.7,11.2,4.2,16.7-1.3c13.2-13.2,26.4-26.4,39.6-39.6c6.4-6.5,6.4-11.9-0.1-18.5
	c-12.7-12.7-25.4-25.4-38.2-38.2c-6.6-6.6-12.9-7.6-17.8-2.9c-5,4.9-4,11.3,2.8,18.1C293.9,117.2,304.5,127.8,315.7,138.9z"/>
<path class="st0" d="M234.7,341.6c-44.5,0-89,0-133.5,0c-18.8,0-37.2-2.6-54.4-10.8c-23.1-11-39.3-28.1-45.6-53.6
	c0-0.2-0.1-0.3-0.1-0.5c-2.7-13.2-1.1-21,16.5-20.8c46.8,0.5,93.6,0.2,140.5,0.2c8.1,0,15.4,2.1,22,6.9c0.3,0.2,0.6,0.4,0.8,0.6
	c12.2,11.6,26.6,15.4,43.4,14c14.7-1.3,29.6-0.4,44.4-0.7c2.2,0,4.6-0.9,6.4-2c5.7-3.7,11.3-7.7,16.8-11.7c6.6-4.7,13.8-7,21.9-7
	c47.2,0.1,94.3,0,141.5,0c11.8,0,16.2,5.2,14.1,17.1c-3.4,19.9-13.8,35.5-29.7,47.6c-16.5,12.6-35.6,19.3-56.1,19.9
	c-38.1,1.1-76.3,0.7-114.4,1C257.7,341.6,246.2,341.6,234.7,341.6z M446.8,277.9c-1.4-0.2-2-0.3-2.7-0.3c-43.8,0-87.6-0.1-131.4,0.1
	c-2.9,0-6.1,1.4-8.7,2.9c-5.9,3.7-11.5,8-17.3,11.9c-6.1,4.1-12.8,6.3-20.2,6.2c-14,0-28-0.1-42-0.1c-34.1,0-28.6,1.4-56.2-17.5
	c-3-2.1-7.3-3.4-11-3.4c-43-0.2-86-0.2-128.9-0.2c-1.7,0-3.5,0-5.6,0c0.4,1.6,0.5,2.4,0.7,3.2c0.4,1.3,0.9,2.5,1.5,3.7
	c6.4,14,17.5,22.8,31.4,28.4c14.1,5.7,28.9,7.3,44.1,7.3c41.1,0,82.3,0,123.4,0c51.5,0,102.9,0.1,154.4-0.3
	c17.2-0.1,33.7-4.2,48.2-14.2C436.5,298.8,443.4,289.9,446.8,277.9z"/>
<path class="st0" d="M234.7,21.6c-46,0-92,0-138,0c-16.7,0-28.2,8.3-31.6,22.8c-0.9,4-1.2,8.3-1.2,12.4c-0.1,57,0,114,0,171
	c0,2.7,0.1,5.3-0.1,8c-0.4,5.4-4.9,9.6-10.2,9.7c-5.3,0.1-10-3.9-10.8-9.2c-0.2-1.5-0.1-3-0.1-4.5c0-59,0-118,0-177
	c0-29.7,24.6-54.7,54.2-54.7C188.7,0,280.6,0,372.4,0.1c29.6,0,54.3,25,54.3,54.7c0,59.3,0,118.7,0,178c0,6.9-2.5,10.8-7.9,12.3
	c-6.2,1.7-12.4-2.3-13.2-8.7c-0.3-2.8-0.2-5.7-0.2-8.5c0-57.2,0-114.3-0.1-171.5c0-4.4-0.4-9-1.6-13.3
	c-3.3-12.3-13.4-20.3-26.1-21.3c-2.3-0.2-4.7-0.2-7-0.2C325.3,21.6,280,21.6,234.7,21.6z"/>
<path class="st0" d="M213.4,213.5c-7.5,0.1-12.5-7-10-14.7c6.3-19.3,12.8-38.5,19.2-57.8c7.6-22.9,15.2-45.7,22.9-68.6
	c2.1-6.3,7-9.3,12.5-8c6.7,1.5,10,7.5,7.7,14.6c-7.4,22.6-15,45.1-22.5,67.7c-6.5,19.4-12.9,38.8-19.5,58.2
	C221.9,210.5,218.3,213.4,213.4,213.5z"/>
<path class="st0" d="M153.8,139c11.4,11.4,22.4,22.2,33.3,33.3c1.8,1.8,3.6,4.1,4.3,6.5c1.3,4.5-0.1,8.6-4.1,11.4
	c-3.7,2.6-8.9,2.4-12.6-0.4c-0.9-0.7-1.7-1.5-2.6-2.4c-13.2-13.2-26.4-26.4-39.6-39.6c-6.3-6.3-6.3-11.8-0.1-18.1
	c13.3-13.3,26.6-26.6,39.9-39.9c5.3-5.3,11.9-5.7,16.3-1.3c4.5,4.5,4,11-1.2,16.3c-10,10-20,20-30,30.1
	C156.5,136.1,155.4,137.4,153.8,139z"/>
<path class="st0" d="M315.7,138.9c-11.1-11.1-21.7-21.7-32.3-32.3c-6.8-6.8-7.8-13.2-2.8-18.1c4.9-4.7,11.2-3.7,17.8,2.9
	c12.7,12.7,25.5,25.4,38.2,38.2c6.5,6.5,6.5,12,0.1,18.5c-13.2,13.2-26.4,26.4-39.6,39.6c-5.5,5.5-12.2,6-16.7,1.3
	c-4.4-4.5-3.8-11,1.5-16.3C292.9,161.4,304,150.4,315.7,138.9z"/>
<path class="st0" d="M446.8,277.9c-3.5,12-10.4,20.9-20.1,27.6c-14.5,10-31,14.1-48.2,14.2c-51.5,0.4-102.9,0.3-154.4,0.3
	c-41.1,0-82.3,0-123.4,0c-15.1,0-29.9-1.6-44.1-7.3c-13.9-5.6-25.1-14.4-31.4-28.4c-0.5-1.2-1-2.4-1.5-3.7c-0.3-0.8-0.4-1.6-0.7-3.2
	c2.1,0,3.8,0,5.6,0c43,0,86-0.1,128.9,0.2c3.7,0,7.9,1.3,11,3.4c27.6,19,22,17.5,56.2,17.5c14,0,28,0.1,42,0.1
	c7.4,0,14.1-2.1,20.2-6.2c5.8-3.9,11.3-8.2,17.3-11.9c2.5-1.6,5.7-2.9,8.7-2.9c43.8-0.2,87.6-0.1,131.4-0.1
	C444.8,277.6,445.5,277.7,446.8,277.9z"/>
</svg>
