<?xml version="1.0" encoding="utf-8"?>
<!-- Generator: Adobe Illustrator 19.0.0, SVG Export Plug-In . SVG Version: 6.00 Build 0)  -->
<svg version="1.1" id="Layer_1" xmlns="http://www.w3.org/2000/svg" xmlns:xlink="http://www.w3.org/1999/xlink" x="0px" y="0px"
	 viewBox="-121 215.2 368 362.8" style="enable-background:new -121 215.2 368 362.8;" xml:space="preserve">
<g>
	<path d="M-3.2,406.4c-2.2,0-3.7,0-5.1,0c-13.1,0-26.1,0.1-39.2,0c-10.2-0.1-16.9-4.7-18.9-12.9c-1.2-4.9-0.3-9.5,2.2-13.7
		c13.1-22.7,26.4-45.3,39.6-67.9c3.9-6.7,9.3-10.3,17.2-10.3c19.8,0.1,39.7-0.2,59.5,0c6.1,0.1,10.6-1.7,14.7-6.1
		c12.6-13.7,26.7-25.5,43.2-34.4c24.7-13.2,50.7-14.9,77.6-9.6c4,0.8,7.9,2,11.9,2.6c4.6,0.7,7,3.5,8,7.6
		c10.2,38.1,6.9,74.2-17.2,106.6c-7.4,10-16.5,18.7-25,27.8c-3.1,3.3-4.9,6.5-4.9,11.1c0.2,19-0.1,38.1,0.3,57.1
		c0.2,11.1-4.1,18.7-13.8,24.2c-21.1,11.9-41.8,24.3-62.7,36.4c-2.5,1.5-5.4,2.8-8.2,3.4c-11.5,2.3-20.4-5.4-20.5-17.6
		c-0.2-13.5,0-26.9,0-40.4c0-1.5,0-2.9,0-5.2c-3,1.3-5.5,2.3-7.8,3.4c-4.7,2.2-9.2,4.6-13.9,6.8c-3.9,1.9-7.7,1.6-10.9-1.6
		c-11.7-11.6-23.3-23.2-34.9-34.9c-3.2-3.2-3.2-7-1.3-10.9c2.7-5.6,5.5-11.2,8.2-16.8C-4.6,409.8-4.1,408.6-3.2,406.4z M198,300.9
		c0.2-12-2.2-17.6-4-28.6c-0.3-1.8-2.7-4.2-4.5-4.6c-15.5-3-31.1-4.8-46.9-1.4c-22.5,4.9-40.6,17.2-56.5,33
		c-36.3,35.9-60.4,79.6-80.5,125.8c-2,4.6-1,8.4,2.4,11.9c5.5,5.6,11.1,11.2,16.6,16.8c3.7,3.8,7.6,4.7,12.5,2.3
		c8.4-4,17.1-7.6,25.5-11.7c37.6-18.2,72.7-40.2,101.8-70.8C182.6,354.4,196.3,332.9,198,300.9z M-53.7,392.2
		c1.6,0.1,2.4,0.2,3.2,0.2c16,0,32.1-0.3,48.1,0c5.1,0.1,7.9-1.9,10.3-6.1c12.9-22.5,26-44.8,39.1-67.3c0.6-1,1-2.1,1.7-3.4
		c-16.8,0-33.1,0.3-49.4-0.1c-6.1-0.2-9.6,2.3-12.4,7.2c-10.3,17.9-20.9,35.6-31.3,53.4C-47.5,381.2-50.4,386.4-53.7,392.2z
		 M145.1,413.1c-1.9,0.9-3.2,1.4-4.4,2.1c-21.8,13.3-43.5,26.6-65.2,39.9c-3,1.8-4.6,4.3-4.6,8c0.1,16-0.1,32-0.1,48.1
		c0,0.7,0.3,1.4,0.5,2.5C95.2,499.7,118.7,486,142,472c1.5-0.9,2.7-3.5,2.7-5.4c0.3-12.2,0.3-24.4,0.4-36.6
		C145.2,424.6,145.1,419.2,145.1,413.1z"/>
	<path d="M-59.3,522.5c-4.7-0.1-7-3.8-5.4-7.3c0.7-1.4,1.8-2.7,2.9-3.8c6.3-6.4,12.6-12.7,19-19c0.8-0.8,1.5-1.6,2.4-2.2
		c2.4-1.7,5.1-2.3,7.4,0c2.3,2.4,2,5.4-0.2,7.7c-3.4,3.7-7,7.1-10.6,10.7c-3.7,3.7-7.4,7.6-11.3,11.2
		C-56.4,521.1-58.3,521.9-59.3,522.5z"/>
	<path d="M-82.6,451.5c-1.9-0.1-4.2-1.3-4.4-4.6c-0.2-3.6,1.6-6.2,5.2-6.6c5.5-0.7,11.1-0.9,16.6-1.3c3.9-0.3,7.8-0.5,11.8-0.8
		c4.6-0.3,6.9,1.2,7.2,4.6c0.3,3.6-2.2,6.5-6.5,6.8c-6.5,0.6-13,0.9-19.4,1.3C-75.2,451.1-78.3,451.3-82.6,451.5z"/>
	<path d="M18.9,514.5c-0.5,7.7-1.1,15.4-1.6,23.1c-0.2,3.2-1.5,5.4-4.6,6.5c-3.6,1.3-7-0.7-6.8-4.4c0.4-10.1,1.1-20.3,1.9-30.4
		c0.3-3.5,3.7-6,6.8-5.7c3.2,0.3,4.7,2.6,4.5,6.9c-0.1,1.4-0.2,2.7-0.3,4.1C18.8,514.5,18.8,514.5,18.9,514.5z"/>
	<path d="M103.3,328.1c-0.4-16.4,13.3-30.8,29.7-31.2c17.3-0.5,31.3,13,31.7,30.4c0.4,16.7-13.1,30.8-29.6,31.1
		C117.6,358.6,103.7,345.4,103.3,328.1z M117.4,327.8c0,8.8,8,16.8,16.6,16.8c8.7,0,16.9-8.4,16.8-17.2c-0.1-8.7-8.4-16.5-17.5-16.5
		C125,311,117.4,319,117.4,327.8z"/>
</g>
</svg>
