<?xml version="1.0" encoding="utf-8"?>
<!-- Generator: Adobe Illustrator 19.0.0, SVG Export Plug-In . SVG Version: 6.00 Build 0)  -->
<svg version="1.1" id="Layer_1" xmlns="http://www.w3.org/2000/svg" xmlns:xlink="http://www.w3.org/1999/xlink" x="0px" y="0px"
	 viewBox="0 0 373 373" style="enable-background:new 0 0 373 373;" xml:space="preserve">
<style type="text/css">
	.st0{fill:#FFFFFF;}
</style>
<path class="st0" d="M336.7,82.6c0.2,4.6-1.8,9-4.6,13.1c-6.7,9.9-13.4,19.9-20.2,29.8c-1.4,2-1.2,3.6-0.7,5.8
	c1.9,8.2,6.8,11.4,15,12.3c9.3,1,18.4,3.3,27.6,5.2c12.2,2.5,18.8,10.4,19,22.8c0.1,10.1,0.1,20.2,0,30.4
	c-0.2,12.9-7,21.1-19.7,23.6c-11.8,2.3-23.5,4.6-35.3,6.8c-2.3,0.4-3.6,1.3-4.2,3.5c-0.3,1.1-0.6,2.2-1.2,3.1c-3.4,5-2.1,9,1.4,13.7
	c6.3,8.4,11.9,17.3,17.7,26c7.2,10.8,6.3,21.2-2.7,30.5c-6.6,6.7-13.2,13.3-19.9,19.9c-9,8.7-20.3,9.8-30.7,2.9
	c-10.1-6.7-20.1-13.5-30.1-20.4c-1.9-1.3-3.6-2-5.7-0.6c-0.9,0.6-2,1.2-3.1,1.3c-6.1,0.9-7.9,4.8-8.7,10.5
	c-1.5,10.4-3.8,20.6-5.9,30.9c-2.4,11.9-11.1,19.1-23.3,19.2c-10.1,0.1-20.2,0.1-30.4,0c-12.2-0.1-20.2-6.7-22.7-18.7
	c-2.4-11.6-4.7-23.2-6.8-34.9c-0.6-3.2-1.6-5.4-5-5.9c-0.1,0-0.3,0-0.4-0.1c-6.2-4.3-11.3-2.6-17,1.8c-7.7,6-16,11.1-24.1,16.5
	c-11.4,7.6-22.1,6.5-31.8-3.1c-6.3-6.3-12.6-12.5-18.8-18.8c-9.3-9.4-10.4-20.9-3-31.9c6.6-9.8,13.2-19.7,20-29.5
	c1.4-2,1.2-3.6,0.7-5.8c-1.9-7.8-6.4-11.5-14.6-12.3c-9.4-0.9-18.6-3.4-28-5.2c-12.1-2.3-19.5-11-19.6-23.4C0,192,0,182.5,0,173
	c0.1-12.9,7.2-21.9,19.8-24.6c11.5-2.4,23-4.7,34.5-6.7c3.4-0.6,4.9-2.2,6.6-5.3c3.7-6.7,2.3-11.7-2.1-17.4
	c-5.9-7.5-10.9-15.8-16.3-23.8c-7.6-11.4-6.6-22.1,3.1-31.8c6.3-6.4,12.7-12.8,19.1-19.1c9.1-9,19.9-10.2,30.6-3.2
	c10.1,6.7,20.1,13.5,30.1,20.4c2,1.4,3.6,1.2,5.8,0.7c8.2-1.9,11.5-6.8,12.3-15c0.9-9.3,3.3-18.4,5.2-27.6
	c2.4-12.2,11.2-19.5,23.8-19.7c9.4-0.1,18.7-0.1,28.1,0c13.3,0.1,22.4,7.8,25,20.8c2.3,11.6,4.6,23.3,6.7,34.9
	c0.4,2.4,1.8,3.1,3.6,4.2c7.2,4.4,13.2,3.1,19.7-2.2c7-5.7,15-10.4,22.5-15.5c11.7-7.9,22.4-6.8,32.4,3.2
	c6.3,6.3,12.6,12.5,18.8,18.8C334.1,69.2,336.9,75,336.7,82.6z M86,126.6c-0.6,2.3-0.9,4-1.6,5.6c-2.9,7-6,14-8.9,21
	c-1.7,4-4.4,6.4-8.8,7.2c-14,2.6-27.9,5.5-41.9,8c-3.3,0.6-4.4,2-4.3,5.2c0.1,8.9,0.1,17.7,0,26.6c0,2.7,0.9,4,3.7,4.5
	c14,2.6,27.9,5.4,41.9,8.1c5.3,1,8.6,3.7,10.5,8.9c2.1,6,4.5,11.9,7.4,17.5c2.8,5.3,2.5,9.8-0.8,14.7c-8,11.6-15.6,23.5-23.6,35.2
	c-1.7,2.5-1.8,4.1,0.5,6.3c6.1,5.8,12,11.7,17.7,17.8c2.6,2.8,4.6,2.7,7.7,0.7c11.5-7.9,23.2-15.6,34.9-23.3c4.2-2.8,8.3-3.3,13-1
	c6.2,3,12.5,5.6,18.9,8.1c4.5,1.7,7.2,4.5,8.1,9.4c2.6,14.1,5.5,28.2,8.1,42.3c0.5,2.6,1.6,3.7,4.2,3.6c9.4-0.1,18.7,0,28.1,0
	c2.4,0,3.5-0.9,3.9-3.4c2.6-14,5.4-27.9,8.1-41.9c0.9-5,3.6-8.2,8.4-10.1c6.2-2.3,12.3-4.8,18.2-7.7c5.2-2.6,9.6-2.3,14.4,0.9
	c11.8,8,23.7,15.8,35.5,23.8c2.5,1.7,4,1.5,6-0.6c5.9-6.1,11.9-12.2,18-18c2.5-2.4,2.7-4.2,0.7-7c-8-11.7-15.7-23.5-23.6-35.2
	c-3.1-4.6-3.3-9-0.8-14c2.9-5.8,5.5-11.8,7.6-17.9c1.8-5.1,4.9-8,10.3-8.9c13.9-2.5,27.7-5.4,41.5-8c2.9-0.5,4-2,4-4.8
	c0-9-0.1-18,0-27c0-2.5-0.9-3.5-3.3-3.9c-13.9-2.6-27.7-5.4-41.5-8c-5.5-1-8.8-3.9-10.7-9.2c-2.1-5.9-4.4-11.7-7.3-17.2
	c-2.7-5.2-2.6-9.8,0.7-14.7c7.8-11.3,15.2-22.9,23-34.2c2.1-3,2.2-5-0.6-7.6c-6.3-5.9-12.4-12-18.3-18.3c-2.4-2.5-4-2.3-6.6-0.5
	c-11.7,7.9-23.5,15.7-35.2,23.6c-4.5,3-8.8,3.2-13.7,0.8c-5.9-2.9-12-5.5-18.2-7.8c-5-1.8-7.7-4.9-8.7-10.1
	c-2.5-13.9-5.4-27.7-7.9-41.6c-0.5-2.8-1.6-3.8-4.4-3.7c-9.1,0.1-18.2,0.1-27.4,0c-3,0-4.1,1.1-4.7,4c-2.5,13.7-5.4,27.4-7.9,41.2
	c-1,5.4-3.9,8.5-9,10.4c-6,2.2-11.9,4.6-17.5,7.5c-5.1,2.6-9.6,2.5-14.4-0.8c-11.7-8-23.5-15.6-35.2-23.6c-2.7-1.8-4.5-1.7-6.7,0.7
	C72,66,66.1,72,60,77.7c-2.5,2.4-2.6,4.3-0.7,7C67.2,96.3,75,108,82.7,119.7C84.1,121.9,85,124.5,86,126.6z"/>
<path class="st0" d="M186.6,249.9c-34.8-0.2-63.1-28.6-62.9-63.4c0.2-34.8,28.8-63.1,63.4-62.8c34.7,0.3,62.9,28.7,62.7,63.2
	C249.7,221.8,221.3,250.1,186.6,249.9z M186.9,229.5c23.4,0,42.7-19.5,42.5-42.8c-0.1-23.2-19.4-42.4-42.6-42.4
	c-23.3-0.1-42.8,19.4-42.8,42.7C144.1,210.3,163.5,229.5,186.9,229.5z"/>
</svg>
