<svg id="Layer_1" data-name="Layer 1" xmlns="http://www.w3.org/2000/svg" viewBox="0 0 486 80.83"><defs><style>.cls-1{fill:#38a8f9;}</style></defs><title>thenuxBlack_logo</title><path d="M165.46,61.51c-11.23,0-18.61-8.55-18.61-21.62,0-12.84,7.29-21.14,18.61-21.14,8.7,0,15.39,5.2,16.94,13.13h-4.08c-1.69-5.92-6.55-9.48-12.86-9.48-9,0-14.59,6.69-14.59,17.49s5.71,18,14.59,18c8,0,13.29-5.11,13.29-12.93V43.48H165.89V40h16.77v4C182.66,55,176.22,61.51,165.46,61.51Z" transform="translate(-4 -2.68)"/><path d="M212.78,52.38c-.89,5.17-5.74,9-12.32,9-8.38,0-13.58-5.86-13.58-15.33,0-9.28,5.26-15.51,13.35-15.51,7.93,0,12.93,5.83,12.93,14.73v1.61H190.79v.23c0,6.75,3.81,10.94,9.76,10.94,4.51,0,7.64-2.36,8.47-5.63Zm-22-8.56h18.43c-.09-5.88-3.67-10-9.07-10S191.13,37.94,190.82,43.82Z" transform="translate(-4 -2.68)"/><path d="M218.24,31h3.59V36.5h.09a8.93,8.93,0,0,1,8.7-6,8.62,8.62,0,0,1,8.64,6.29h.09a9.82,9.82,0,0,1,9.41-6.29c5.84,0,9.65,3.91,9.65,9.93V60.85h-3.79V41.3c0-4.63-2.58-7.41-6.92-7.41s-7.46,3.39-7.46,8.15V60.85h-3.82V41c0-4.28-2.76-7.06-6.84-7.06-4.39,0-7.55,3.53-7.55,8.61V60.85h-3.79Z" transform="translate(-4 -2.68)"/><path d="M278.84,19.41c12.4,0,19.64,7.62,19.64,20.71s-7.21,20.73-19.64,20.73H265.4V19.41Zm-9.51,37.88h9.28c10.19,0,15.88-6.14,15.88-17.14S288.8,23,278.61,23h-9.28Z" transform="translate(-4 -2.68)"/><path d="M303.82,22.43A2.54,2.54,0,1,1,306.35,25,2.53,2.53,0,0,1,303.82,22.43Zm.63,8.56h3.79V60.85h-3.79Z" transform="translate(-4 -2.68)"/><path d="M315.05,31h3.59V36.3h.09a7.59,7.59,0,0,1,7.55-5.8,10.18,10.18,0,0,1,2.35.31v3.74a7.64,7.64,0,0,0-2.84-.43c-4.25,0-7,3.3-7,8.12V60.85h-3.79Z" transform="translate(-4 -2.68)"/><path d="M355.43,52.38c-.89,5.17-5.75,9-12.32,9-8.39,0-13.59-5.86-13.59-15.33,0-9.28,5.26-15.51,13.36-15.51,7.92,0,12.92,5.83,12.92,14.73v1.61H333.43v.23c0,6.75,3.82,10.94,9.76,10.94,4.51,0,7.64-2.36,8.47-5.63Zm-22-8.56h18.43c-.08-5.88-3.67-10-9.07-10S333.77,37.94,333.46,43.82Z" transform="translate(-4 -2.68)"/><path d="M381.45,40.43a8.28,8.28,0,0,0-8.53-6.57c-5.83,0-9.65,4.68-9.65,12.06S367.12,58,373,58c4.51,0,7.63-2.5,8.5-6.37h3.76c-.83,5.71-5.69,9.73-12.29,9.73-8.16,0-13.53-5.86-13.53-15.42s5.37-15.42,13.5-15.42c7,0,11.54,4.59,12.29,9.93Z" transform="translate(-4 -2.68)"/><path d="M395.37,23.52V31h5.89v3.16h-5.89V53.33c0,3.07,1.21,4.39,4,4.39a20.72,20.72,0,0,0,2.07-.11v3.24a23.12,23.12,0,0,1-2.82.17c-5,0-7-2.12-7-7.52V34.15h-4.45V31h4.45V23.52Z" transform="translate(-4 -2.68)"/><path d="M421.36,19.41c7.93,0,13.3,5.2,13.3,12.9s-5.43,12.92-13.32,12.92H411.17V60.85h-3.9V19.41ZM411.17,41.73h9.27c6.38,0,10.2-3.53,10.2-9.42s-3.79-9.39-10.2-9.39h-9.27Z" transform="translate(-4 -2.68)"/><path d="M436.3,52.58c0-5.11,3.82-8.21,10.71-8.67l9.3-.57V40.75c0-4.31-2.72-6.89-7.38-6.89-4.39,0-7.2,2.15-7.86,5.77h-3.68c.43-5.34,4.82-9.13,11.63-9.13s11.09,3.82,11.09,9.91V60.85h-3.62V55.17h-.09a11.13,11.13,0,0,1-10.19,6.17C440.32,61.34,436.3,57.81,436.3,52.58Zm20-3v-3.3l-8.84.6c-4.71.32-7.32,2.36-7.32,5.66s2.78,5.49,6.83,5.49C452.21,58.07,456.31,54.36,456.31,49.62Z" transform="translate(-4 -2.68)"/><path d="M466.71,71.48V68.23a8.31,8.31,0,0,0,1.81.17c2.73,0,4.22-1.37,5.54-5.11l.81-2.24L463.67,31h4.07l9.08,26.07h.08L486,31h4L478.25,62.66c-2.61,7-4.73,9-9.64,9A12.63,12.63,0,0,1,466.71,71.48Z" transform="translate(-4 -2.68)"/><path class="cls-1" d="M58.91,83.13q-3.75-3.81-7.49-7.61c-2.74-2.8-5.47-5.62-8.21-8.42l-22.52-23Q13.73,37,6.78,29.82c-.84-.86-1.66-1.75-2.53-2.58-.36-.34-.3-.53,0-.86Q9.85,20,15.43,13.57q4.52-5.14,9-10.32a1.51,1.51,0,0,1,1.27-.57H94v.09l-4.47.86L65.76,8.16,43.15,12.45,31.32,14.71a1.12,1.12,0,0,0-.64.3Q24.88,20.71,19,26.4c-.34.34-.35.53-.07.92Q38.89,55,58.77,82.63c.09.13.16.27.25.4Z" transform="translate(-4 -2.68)"/><path class="cls-1" d="M100.13,28.63H60l0-.11,4.16-1.1Q84.75,22,105.36,16.61a1.29,1.29,0,0,1,1.57.47c2.72,3.15,5.48,6.26,8.24,9.38.26.29.24.44,0,.72Q108,34.46,100.88,41.75L85.5,57.5q-7.68,7.86-15.35,15.71L60.8,82.79a4,4,0,0,1-.31.27L60.35,83Q80.19,55.84,100.13,28.63Z" transform="translate(-4 -2.68)"/><path class="cls-1" d="M59.1,83.31l-.19-.18L59,83l.16.21Z" transform="translate(-4 -2.68)"/><path class="cls-1" d="M60.24,83.12c.06,0,.1-.2.2-.1s0,.14-.1.19Z" transform="translate(-4 -2.68)"/><path class="cls-1" d="M60.34,83.21s-.1.1-.11.09,0-.12,0-.18Z" transform="translate(-4 -2.68)"/><path class="cls-1" d="M59.23,83.42c-.08,0-.12,0-.13-.11l.08-.07c0,.06.13.12,0,.2Z" transform="translate(-4 -2.68)"/><path class="cls-1" d="M59.22,83.44s.08,0,.1,0a0,0,0,0,1,0,0l-.08-.08Z" transform="translate(-4 -2.68)"/></svg>