<svg id="Layer_1" data-name="Layer 1" xmlns="http://www.w3.org/2000/svg" viewBox="0 0 486 80.83"><defs><style>.cls-1{fill:#fff;}</style></defs><title>thenuxWhite_logo</title><path class="cls-1" d="M168.46,60.42c-11.23,0-18.61-8.55-18.61-21.62,0-12.84,7.29-21.14,18.61-21.14,8.7,0,15.39,5.2,16.94,13.13h-4.08c-1.69-5.92-6.55-9.48-12.86-9.48-9,0-14.59,6.69-14.59,17.49s5.71,18,14.59,18c8,0,13.29-5.11,13.29-12.93V42.39H168.89V38.94h16.77v4C185.66,53.88,179.22,60.42,168.46,60.42Z" transform="translate(-7 -1.59)"/><path class="cls-1" d="M215.78,51.29c-.89,5.17-5.74,9-12.32,9-8.38,0-13.58-5.86-13.58-15.33,0-9.28,5.26-15.51,13.35-15.51,7.93,0,12.93,5.83,12.93,14.73v1.61H193.79V46c0,6.75,3.81,10.94,9.76,10.94,4.51,0,7.64-2.36,8.47-5.63Zm-22-8.56h18.43c-.09-5.88-3.67-10-9.07-10S194.13,36.85,193.82,42.73Z" transform="translate(-7 -1.59)"/><path class="cls-1" d="M221.24,29.9h3.59v5.51h.09a8.93,8.93,0,0,1,8.7-6,8.62,8.62,0,0,1,8.64,6.29h.09a9.82,9.82,0,0,1,9.41-6.29c5.84,0,9.65,3.91,9.65,9.94V59.76h-3.79V40.21c0-4.63-2.58-7.41-6.92-7.41s-7.46,3.39-7.46,8.15V59.76h-3.82V39.86c0-4.28-2.76-7.06-6.84-7.06-4.39,0-7.55,3.53-7.55,8.61V59.76h-3.79Z" transform="translate(-7 -1.59)"/><path class="cls-1" d="M281.84,18.32c12.4,0,19.64,7.62,19.64,20.71s-7.21,20.73-19.64,20.73H268.4V18.32ZM272.33,56.2h9.28c10.19,0,15.88-6.14,15.88-17.14s-5.69-17.18-15.88-17.18h-9.28Z" transform="translate(-7 -1.59)"/><path class="cls-1" d="M306.82,21.34a2.54,2.54,0,1,1,2.53,2.53A2.53,2.53,0,0,1,306.82,21.34Zm.63,8.56h3.79V59.76h-3.79Z" transform="translate(-7 -1.59)"/><path class="cls-1" d="M318.05,29.9h3.59v5.31h.09a7.59,7.59,0,0,1,7.55-5.8,10.18,10.18,0,0,1,2.35.31v3.74a7.64,7.64,0,0,0-2.84-.43c-4.25,0-7,3.3-7,8.12V59.76h-3.79Z" transform="translate(-7 -1.59)"/><path class="cls-1" d="M358.43,51.29c-.89,5.17-5.75,9-12.32,9-8.39,0-13.59-5.86-13.59-15.33,0-9.28,5.26-15.51,13.36-15.51,7.92,0,12.92,5.83,12.92,14.73v1.61H336.43V46c0,6.75,3.82,10.94,9.76,10.94,4.51,0,7.64-2.36,8.47-5.63Zm-22-8.56h18.43c-.08-5.88-3.67-10-9.07-10S336.77,36.85,336.46,42.73Z" transform="translate(-7 -1.59)"/><path class="cls-1" d="M384.45,39.35a8.28,8.28,0,0,0-8.53-6.58c-5.83,0-9.65,4.68-9.65,12.06s3.85,12.06,9.68,12.06c4.51,0,7.63-2.5,8.5-6.37h3.76c-.83,5.71-5.69,9.73-12.29,9.73-8.16,0-13.53-5.86-13.53-15.42s5.37-15.42,13.5-15.42c7,0,11.54,4.59,12.29,9.94Z" transform="translate(-7 -1.59)"/><path class="cls-1" d="M398.37,22.43V29.9h5.89v3.16h-5.89V52.24c0,3.07,1.21,4.39,4,4.39a20.72,20.72,0,0,0,2.07-.11v3.24a23.12,23.12,0,0,1-2.82.17c-5,0-7-2.12-7-7.52V33.06h-4.45V29.9h4.45V22.43Z" transform="translate(-7 -1.59)"/><path class="cls-1" d="M424.36,18.32c7.93,0,13.3,5.2,13.3,12.9s-5.43,12.92-13.32,12.92H414.17V59.76h-3.9V18.32ZM414.17,40.64h9.27c6.38,0,10.2-3.53,10.2-9.42s-3.79-9.39-10.2-9.39h-9.27Z" transform="translate(-7 -1.59)"/><path class="cls-1" d="M439.3,51.49c0-5.11,3.82-8.21,10.71-8.67l9.3-.57V39.66c0-4.31-2.72-6.89-7.38-6.89-4.39,0-7.2,2.15-7.86,5.77h-3.68c.43-5.34,4.82-9.13,11.63-9.13s11.09,3.82,11.09,9.91V59.76h-3.62V54.08h-.09a11.13,11.13,0,0,1-10.19,6.17C443.32,60.25,439.3,56.72,439.3,51.49Zm20-3v-3.3l-8.84.6c-4.71.32-7.32,2.36-7.32,5.66S445.93,57,450,57C455.21,57,459.31,53.27,459.31,48.53Z" transform="translate(-7 -1.59)"/><path class="cls-1" d="M469.71,70.39V67.14a8.28,8.28,0,0,0,1.81.18c2.73,0,4.22-1.38,5.54-5.12l.81-2.24L466.67,29.9h4.07L479.82,56h.08L489,29.9h4L481.25,61.57c-2.61,7-4.73,9-9.64,9A12.63,12.63,0,0,1,469.71,70.39Z" transform="translate(-7 -1.59)"/><path class="cls-1" d="M61.91,82q-3.75-3.81-7.49-7.61C51.68,71.63,49,68.81,46.21,66L23.69,43q-7-7.11-13.91-14.24c-.84-.86-1.66-1.75-2.53-2.58-.36-.34-.3-.53,0-.86q5.61-6.39,11.19-12.8c3-3.44,6-6.87,9-10.33a1.51,1.51,0,0,1,1.27-.57H97v.09l-4.47.86L68.76,7.07,46.15,11.36,34.32,13.62a1.12,1.12,0,0,0-.64.3Q27.88,19.62,22,25.31c-.34.34-.35.53-.07.92q19.92,27.65,39.8,55.31c.09.13.16.27.25.4Z" transform="translate(-7 -1.59)"/><path class="cls-1" d="M103.13,27.54H63l0-.11,4.16-1.1q20.63-5.4,41.24-10.81a1.29,1.29,0,0,1,1.57.47c2.72,3.15,5.48,6.26,8.24,9.38.26.29.24.44,0,.72Q111,33.37,103.88,40.66L88.5,56.41q-7.68,7.86-15.35,15.71L63.8,81.7a4,4,0,0,1-.31.27l-.14-.11Q83.2,54.76,103.13,27.54Z" transform="translate(-7 -1.59)"/><path class="cls-1" d="M62.1,82.22,61.91,82l.11-.1.16.21Z" transform="translate(-7 -1.59)"/><path class="cls-1" d="M63.24,82c.06,0,.1-.2.2-.1s0,.14-.1.19Z" transform="translate(-7 -1.59)"/><path class="cls-1" d="M63.34,82.12s-.1.1-.11.09,0-.12,0-.18Z" transform="translate(-7 -1.59)"/><path class="cls-1" d="M62.23,82.33c-.08,0-.12,0-.13-.11l.08-.07c0,.06.13.12,0,.2Z" transform="translate(-7 -1.59)"/><path class="cls-1" d="M62.22,82.35s.08,0,.1,0a0,0,0,0,1,0,0l-.08-.08Z" transform="translate(-7 -1.59)"/></svg>