<svg id="Layer_1" data-name="Layer 1" xmlns="http://www.w3.org/2000/svg" viewBox="0 0 111.35 80.83"><defs><style>.cls-1{fill:#38a8f9;}</style></defs><title>thenuxWhite2_logo</title><path class="cls-1" d="M60.23,82q-3.75-3.81-7.49-7.61C50,71.63,47.27,68.81,44.53,66L22,43,8.1,28.73c-.84-.86-1.66-1.75-2.53-2.58-.36-.34-.3-.53,0-.86q5.61-6.39,11.2-12.8c3-3.44,6-6.87,9-10.33A1.52,1.52,0,0,1,27,1.59h68.3l0,.09-4.47.86L67.09,7.07,44.48,11.36,32.64,13.62a1.09,1.09,0,0,0-.63.3q-5.82,5.7-11.64,11.39c-.35.34-.36.53-.08.92q19.92,27.65,39.8,55.31c.09.13.17.27.25.4Z" transform="translate(-5.32 -1.59)"/><path class="cls-1" d="M101.46,27.54H61.3v-.11l4.15-1.1q20.63-5.4,41.24-10.81a1.31,1.31,0,0,1,1.58.47c2.71,3.15,5.47,6.26,8.23,9.38.26.29.25.44,0,.72C111.7,30.94,107,35.8,102.2,40.66L86.82,56.41,71.47,72.12,62.12,81.7a2.73,2.73,0,0,1-.31.27l-.14-.11Z" transform="translate(-5.32 -1.59)"/><path class="cls-1" d="M60.42,82.22,60.23,82l.11-.1.17.21Z" transform="translate(-5.32 -1.59)"/><path class="cls-1" d="M61.56,82c.06,0,.1-.2.2-.1s0,.14-.1.19Z" transform="translate(-5.32 -1.59)"/><path class="cls-1" d="M61.66,82.12s-.1.1-.11.09,0-.12,0-.18Z" transform="translate(-5.32 -1.59)"/><path class="cls-1" d="M60.55,82.33c-.08,0-.12,0-.13-.11l.09-.07c0,.06.12.12,0,.2Z" transform="translate(-5.32 -1.59)"/><path class="cls-1" d="M60.54,82.35s.08,0,.11,0a.43.43,0,0,1,0,0l-.09-.08Z" transform="translate(-5.32 -1.59)"/></svg>