<?xml version="1.0" encoding="utf-8"?>
<!-- Generator: Adobe Illustrator 19.0.0, SVG Export Plug-In . SVG Version: 6.00 Build 0)  -->
<svg version="1.1" id="Layer_1" xmlns="http://www.w3.org/2000/svg" xmlns:xlink="http://www.w3.org/1999/xlink" x="0px" y="0px"
	 viewBox="-113 240.1 368 362.8" style="enable-background:new -113 240.1 368 362.8;" xml:space="preserve">
<style type="text/css">
	.st0{fill:#FFFFFF;}
</style>
<g id="XMLID_3_">
	<path id="XMLID_23_" class="st0" d="M-39.5,328.8c1.6,0,3.2,0,4.8,0c76.3,0,152.6,0,228.8,0c2,0,4.2,0,6.1,0.5
		c6.4,1.7,10.4,7.7,9.7,14.1s-5.9,11.4-12.4,11.8c-1.4,0.1-2.8,0-4.1,0c-74.9,0-149.8,0-224.7,0c-1.6,0-3.2,0-5.6,0
		c1.6,1.7,2.6,2.8,3.7,3.8c13.4,13.1,26.9,26.2,40.2,39.4c7.7,7.7,4.6,19.9-5.7,22.6c-4.6,1.2-8.9,0.1-12.2-3.2
		c-21.7-21.2-43.5-42.3-65-63.7c-7.7-7.6-7.3-21.2,0.6-28.8c21.2-20.5,42.6-40.9,63.9-61.3c5.9-5.6,14-5.5,19.2,0s4.9,13.5-1,19.2
		c-14.5,14-29,27.9-43.6,41.8c-1,0.9-2.1,1.8-3.1,2.7C-39.8,328.2-39.6,328.5-39.5,328.8z"/>
	<path id="XMLID_22_" class="st0" d="M178.7,487.8c-4.5-4.5-8.3-8.5-12.2-12.3c-10.2-10.1-20.5-20.1-30.7-30.1
		c-6.3-6.2-6.9-14.1-1.4-19.8c5.6-5.7,13.6-5.3,20.1,1.1c20.5,20.1,41,40.1,61.5,60.2c10.1,9.9,10,22.6-0.1,32.3
		c-20.7,19.9-41.4,39.7-62.1,59.6c-8,7.7-19.9,4.7-22.6-5.5c-1.5-5.5,0.5-9.9,4.5-13.8c14.4-13.7,28.7-27.5,43-41.2
		c1.1-1,2.3-1.9,3.5-2.9c-0.1-0.4-0.3-0.7-0.4-1.1c-1.6,0-3.1,0-4.7,0c-71.9,0-143.7,0-215.6,0c-1.9,0-3.9,0.1-5.8-0.3
		c-6.5-1.4-10.9-7.4-10.4-14c0.5-6.7,6-11.9,12.9-12.2c1.7-0.1,3.3,0,5,0c69.9,0,139.9,0,209.8,0
		C174.5,487.8,176.2,487.8,178.7,487.8z"/>
</g>
</svg>
