<svg xmlns="http://www.w3.org/2000/svg" xmlns:xlink="http://www.w3.org/1999/xlink" width="105" height="105" viewBox="0 0 105 105">
  <defs>
    <clipPath id="clip-BAT">
      <rect width="105" height="105"/>
    </clipPath>
  </defs>
  <g id="BAT" clip-path="url(#clip-BAT)">
    <circle id="Ellipse_3" data-name="Ellipse 3" cx="52.5" cy="52.5" r="52.5" fill="#fff"/>
    <g id="Group_1" data-name="Group 1" transform="translate(1234.596 283.936)">
      <path id="Path_1" data-name="Path 1" d="M-1215.281-207.574q1.543-2.686,3.087-5.371,2.4-4.156,4.8-8.31c.751-1.305,1.487-2.62,2.23-3.93.093-.152.107-.348.258-.468.728-1.107,1.351-2.276,2.014-3.422.9-1.549,1.779-3.106,2.667-4.66a2.294,2.294,0,0,1,.359-.67c1.046-1.652,1.965-3.378,2.95-5.065.866-1.482,1.718-2.972,2.6-4.446.647-1.084,1.272-2.182,1.906-3.274.262.024.073-.229.183-.3.813-1.43,1.621-2.863,2.441-4.288q2.818-4.895,5.648-9.783c.682-1.179,1.379-2.35,2.069-3.525.2.1.2.289.216.464a4.306,4.306,0,0,1,.009.5q0,10.751,0,21.5a4.874,4.874,0,0,1-.026.727,10.045,10.045,0,0,1-1.12,2.038.387.387,0,0,0-.187.3,17.905,17.905,0,0,1-1.145,2.07c-.889,1.483-1.713,3-2.589,4.494-1.732,2.942-3.4,5.92-5.137,8.859-.772,1.306-1.5,2.639-2.263,3.948-.125.258-.319.475-.435.738-.014.138-.176.195-.184.337a.29.29,0,0,1-.131.117,5.545,5.545,0,0,0-.927.525c-.094.05-.172.124-.263.177-1.036.558-2.038,1.174-3.064,1.75-.236.132-.47.271-.7.412a2.846,2.846,0,0,0-.278.165c-1.665.958-3.346,1.886-4.981,2.9a2.1,2.1,0,0,0-.453.247c-1.009.581-2.028,1.146-3.024,1.75-.776.471-1.576.9-2.362,1.357-.1.05-.179.121-.272.178-.218.074-.4.262-.664.191-.253-.177-.152.084-.2.162a.7.7,0,0,1-.36.333c-.756.383-1.464.851-2.2,1.265A.415.415,0,0,1-1215.281-207.574Z" transform="translate(0 -0.342)" fill="#fb4f00"/>
      <path id="Path_2" data-name="Path 2" d="M-851.18-242.042q0-11.426,0-22.853a.838.838,0,0,0-.073-.531c.244-.125.236.122.294.221q1.77,3.043,3.524,6.094c.831,1.444,1.652,2.893,2.478,4.34-.105.449.154.683.508.861a.065.065,0,0,1,.031.071c0,.132,0,.261.172.291q1.979,3.4,3.956,6.81c.06.1.1.216.154.325s.035.282.2.335c.815,1.4,1.634,2.79,2.444,4.19.558.964,1.1,1.936,1.653,2.9a.99.99,0,0,0,.342.58q1.924,3.319,3.846,6.638c.558.966,1.105,1.94,1.657,2.91a.8.8,0,0,0,.388.66c.814,1.4,1.608,2.807,2.424,4.2,1.255,2.146,2.495,4.3,3.745,6.449q1.753,3.012,3.484,6.036c.669,1.163,1.33,2.332,1.995,3.5-.072.244-.261.184-.391.108a26.261,26.261,0,0,1-2.25-1.38c-.053-.166-.2-.176-.338-.2a7.975,7.975,0,0,1-1.427-.752,1.006,1.006,0,0,0-.376-.211c-.154-.107-.361-.147-.439-.349a.754.754,0,0,0-.826-.489c-.444-.022-.708-.38-1.062-.569a.659.659,0,0,0-.343-.211.408.408,0,0,1-.1-.063.831.831,0,0,0-.419-.288.506.506,0,0,1-.1-.053.736.736,0,0,0-.3-.144.529.529,0,0,1-.1-.054,2.469,2.469,0,0,0-.362-.173,9.564,9.564,0,0,1-1.228-.684.946.946,0,0,0-.463-.348.532.532,0,0,1-.1-.054.736.736,0,0,0-.3-.146.513.513,0,0,1-.1-.054,2.48,2.48,0,0,0-.363-.174,5.215,5.215,0,0,1-1.392-.847.594.594,0,0,0-.331-.2.536.536,0,0,1-.1-.054,2.388,2.388,0,0,0-.366-.175,11.037,11.037,0,0,1-1.756-1.031.647.647,0,0,0-.339-.2.424.424,0,0,1-.1-.066.7.7,0,0,0-.54-.276,3.487,3.487,0,0,1-1.245-.756,1.818,1.818,0,0,0-.709-.343.491.491,0,0,1-.241-.188c-.07-.144-.216-.151-.345-.189a13.616,13.616,0,0,0-1.324-.715.329.329,0,0,1-.138-.137c-1-1.772-2.03-3.523-3.039-5.287-.813-1.422-1.64-2.837-2.463-4.254a1.43,1.43,0,0,1-.205-.5c-.014-.174,0-.364-.225-.427a5.633,5.633,0,0,1-.934-1.447q-2.873-4.971-5.75-9.94A1.571,1.571,0,0,1-851.18-242.042Z" transform="translate(-330.814 0)" fill="#9e1f64"/>
      <path id="Path_3" data-name="Path 3" d="M-1164.649,239.052a4.408,4.408,0,0,1,1.376.727c.085.128.276.056.357.19l.188.178a2.24,2.24,0,0,0,.73.364,8.258,8.258,0,0,0,1.277.731,4.3,4.3,0,0,0,.553.358v0c.086.13.273.061.363.185a18.712,18.712,0,0,0,1.777.972c.027.01.034.079.05.121.086.13.273.062.363.185h0c.087.128.274.059.363.184.442.377,1.035.509,1.464.908.086.132.273.063.363.185h0c.087.129.274.06.362.185h0a4.179,4.179,0,0,0,.552.359,5.78,5.78,0,0,1,1.276.73c.086.131.273.063.363.185h0c.087.129.273.061.363.184v0a4.889,4.889,0,0,0,.549.363h0c.088.127.275.059.364.183.417.078.638.539,1.088.552.294.2.626.34.919.545-.01.256.379.1.369.358.088.132.274.066.369.183l1.451.736c.09.124.278.055.365.186a4.553,4.553,0,0,0,1.1.7c.368.221.713.483,1.1.675.137.068.246.109.368,0l.1.163a1.352,1.352,0,0,1-.685.031,3.157,3.157,0,0,0-.592-.022h-64.128a4.469,4.469,0,0,0-.546.014c-.168.039-.2-.079-.221-.2.78-.484,1.561-.964,2.383-1.375.073-.036.121-.122.181-.185s.11-.127.2-.144c.273.037.428-.274.7-.236.113.02.127-.1.2-.141.18-.249.475-.318.722-.463q2.212-1.3,4.427-2.59a1.1,1.1,0,0,1,.3-.074c.125-.09.318-.074.388-.249,1.147-.779,2.375-1.42,3.576-2.107.484-.276.969-.55,1.453-.825a1.125,1.125,0,0,1,.417.035c.059.031.015-.083-.009-.028-.007.017-.052.005-.078-.01a.168.168,0,0,1-.078-.1,7.078,7.078,0,0,1,1.3-.828c.734-.446,1.478-.876,2.223-1.3a1.089,1.089,0,0,1,.3-.072c.114.014.126-.108.2-.149a2.444,2.444,0,0,1,1.007-.567c.082.073.2-.012.284.069.069.114.131.113.187-.013a.39.39,0,0,1,.3-.034.545.545,0,0,1,.226.123.228.228,0,0,1,.054.178.4.4,0,0,1-.044.115c-.151.267-.045.364.233.351q11.833,0,23.663,0a2.175,2.175,0,0,0,.677-.041.5.5,0,0,0,.139-.15.832.832,0,0,0,.2-.357.584.584,0,0,1,.078-.152A1.064,1.064,0,0,1-1164.649,239.052Z" transform="translate(-4.304 -458.475)" fill="#662e90"/>
      <path id="Path_4" data-name="Path 4" d="M-1142.182,365.569l.653-.008c.04.207-.125.106-.186.107-.547.009-1.094.006-1.641.006h-63.513c-.182,0-.364-.011-.546-.017-.005-.1.059-.125.143-.128.152,0,.3,0,.456,0q32.025,0,64.05,0A1.32,1.32,0,0,1-1142.182,365.569Z" transform="translate(-7.148 -573.407)" fill="#63258f"/>
      <path id="Path_5" data-name="Path 5" d="M-1144.253,365.1q-32.31,0-64.62,0c-.2,0-.427-.079-.613.082l-.181,0q-.036-.029-.024-.058c.008-.02.016-.029.023-.029a.93.93,0,0,1,.53-.092q32.206,0,64.411,0C-1144.567,365.013-1144.388,364.953-1144.253,365.1Z" transform="translate(-5.077 -572.94)" fill="#6b2d97"/>
      <path id="Path_6" data-name="Path 6" d="M-783.769-147.43c-.378.1-.478-.254-.658-.442-.159-.166.076-.285.15-.42Z" transform="translate(-391.495 -106.48)" fill="#982562"/>
      <path id="Path_7" data-name="Path 7" d="M-1214.745,364.258q0,.044,0,.087c-.177-.063-.458.209-.537-.167a.84.84,0,0,0,.432-.107A.194.194,0,0,1-1214.745,364.258Z" transform="translate(0 -572.096)" fill="#742e7a"/>
      <path id="Path_8" data-name="Path 8" d="M-778.1-137.778c-.135-.06-.207.25-.33.079s.084-.254.159-.37Z" transform="translate(-396.96 -115.769)" fill="#982562"/>
      <path id="Path_9" data-name="Path 9" d="M-682.078,25.325a.472.472,0,0,1-.342-.58Z" transform="translate(-484.235 -263.728)" fill="#8e2e60"/>
      <path id="Path_10" data-name="Path 10" d="M-729.721-56.344c-.351.058-.245-.157-.2-.335A.556.556,0,0,1-729.721-56.344Z" transform="translate(-441.031 -189.733)" fill="#943466"/>
      <path id="Path_11" data-name="Path 11" d="M-964.412-72.222c-.005.134.08.281-.05.394-.009.008-.087-.063-.134-.1A.464.464,0,0,1-964.412-72.222Z" transform="translate(-227.814 -175.608)" fill="#ea6425"/>
      <path id="Path_12" data-name="Path 12" d="M-972.409,3.751q1.657,2.895,3.315,5.789c.731,1.273,1.472,2.541,2.2,3.816.077.134.236.248.175.441a1.189,1.189,0,0,1-.581.072q-12.068,0-24.136,0a5.346,5.346,0,0,1-1.22-.084c-.079-.145.177-.172.11-.313.429-.284.429-.284.44-.741.494-.88.979-1.766,1.484-2.64q3.6-6.231,7.2-12.457c.827-1.433,1.645-2.872,2.467-4.308a.751.751,0,0,1,.168-.292l1.094-1.816q2.142,3.693,4.285,7.385,1.356,2.332,2.719,4.659C-972.488,3.361-972.474,3.571-972.409,3.751Z" transform="translate(-202.299 -233.257)" fill="#fefefe"/>
      <path id="Path_13" data-name="Path 13" d="M-993.295,238.447q2.712-.005,5.424-.01,9.984,0,19.968,0c.182,0,.363.016.545.025a.129.129,0,0,0,.066.037.55.55,0,0,1,.007.09,1.072,1.072,0,0,1-.615.129q-11.974,0-23.948,0a1.877,1.877,0,0,1-.709-.131h-.365a.123.123,0,0,1-.183,0c-.1-.006-.21.02-.269-.1Z" transform="translate(-201.661 -457.923)" fill="#5a1f86"/>
      <path id="Path_14" data-name="Path 14" d="M-990.859,227c.367.609.075.668-.44.741A2.374,2.374,0,0,1-990.859,227Z" transform="translate(-203.546 -447.533)" fill="#f9f6ed"/>
      <path id="Path_15" data-name="Path 15" d="M-1051.039,270.675c.142.137.259-.07.429-.033-.194.333-.439.227-.681.132C-1051.254,270.623-1051.129,270.694-1051.039,270.675Z" transform="translate(-149.028 -487.186)" fill="#642ba1"/>
      <path id="Path_16" data-name="Path 16" d="M-1183.552,343.294c0,.143-.081.167-.2.144.058-.13-.257-.2-.073-.322C-1183.686,343.026-1183.577,343.132-1183.552,343.294Z" transform="translate(-28.534 -553.021)" fill="#ef520b"/>
      <path id="Path_17" data-name="Path 17" d="M-1110.285,304.268c.013.306-.2.261-.388.249C-1110.645,304.276-1110.408,304.361-1110.285,304.268Z" transform="translate(-95.063 -517.748)" fill="#6e2f85"/>
      <path id="Path_18" data-name="Path 18" d="M-1006.375,245.193c-.026.1.058.249-.088.3-.09.029-.086-.086-.11-.146C-1006.574,245.2-1006.494,245.171-1006.375,245.193Z" transform="translate(-189.667 -464.057)" fill="#6f3379"/>
      <path id="Path_19" data-name="Path 19" d="M-1172.376,341.192c-.026.1.059.252-.092.294-.089.025-.083-.091-.106-.153C-1172.577,341.189-1172.491,341.17-1172.376,341.192Z" transform="translate(-38.811 -551.296)" fill="#772c81"/>
      <path id="Path_20" data-name="Path 20" d="M-864.2,11.115a.351.351,0,0,1-.169.292C-864.389,11.265-864.384,11.138-864.2,11.115Z" transform="translate(-318.889 -251.342)" fill="#dc734b"/>
      <path id="Path_21" data-name="Path 21" d="M-685.714,251.5c-.31.014-.616.017-.73-.364A.859.859,0,0,1-685.714,251.5Z" transform="translate(-480.587 -469.463)" fill="#7a287c"/>
      <path id="Path_22" data-name="Path 22" d="M-663.9,263.443a.473.473,0,0,1-.553-.358A.472.472,0,0,1-663.9,263.443Z" transform="translate(-500.569 -480.318)" fill="#872574"/>
      <path id="Path_23" data-name="Path 23" d="M-773.391,123.7a1.269,1.269,0,0,1-.281-.491C-773.238,123.176-773.412,123.493-773.391,123.7Z" transform="translate(-401.317 -353.206)" fill="#942c63"/>
      <path id="Path_24" data-name="Path 24" d="M-692.065,247.292c-.141-.022-.331.048-.357-.19C-692.279,247.12-692.083,247.036-692.065,247.292Z" transform="translate(-475.154 -465.798)" fill="#852577"/>
      <path id="Path_25" data-name="Path 25" d="M-658.038,267.267c-.144-.016-.336.062-.363-.185C-658.257,267.1-658.069,267.027-658.038,267.267Z" transform="translate(-506.071 -483.955)" fill="#81277a"/>
      <path id="Path_26" data-name="Path 26" d="M-958.357,241.878v.182a.77.77,0,0,1-.527.089q-11.9,0-23.81,0a1.1,1.1,0,0,1-.45-.044.281.281,0,0,1-.029-.411.761.761,0,0,1,.563-.128q11.853,0,23.707.007C-958.7,241.576-958.346,241.435-958.357,241.878Z" transform="translate(-210.862 -460.756)" fill="#662d92"/>
      <path id="Path_27" data-name="Path 27" d="M-957.612,240.947c-.058-.279-.284-.178-.444-.178-1.929-.006-3.857,0-5.786,0h-18.587q0-.091,0-.182a.976.976,0,0,1,.492-.042q12.007,0,24.015,0a.975.975,0,0,1,.492.042C-957.447,240.726-957.368,240.917-957.612,240.947Z" transform="translate(-211.607 -459.825)" fill="#682d8c"/>
      <path id="Path_28" data-name="Path 28" d="M-982.812,247.107H-958c-.059.279-.284.178-.444.178-1.9.006-3.8,0-5.694,0h-18.678A.126.126,0,0,1-982.812,247.107Z" transform="translate(-211.223 -465.802)" fill="#60318f"/>
      <path id="Path_29" data-name="Path 29" d="M-959.243,240.2h-25a.188.188,0,0,1-.182-.091h25.272Z" transform="translate(-209.794 -459.446)" fill="#6a2f96"/>
      <path id="Path_30" data-name="Path 30" d="M-984.542,243.472v.182q-.425-.273,0-.547Z" transform="translate(-209.494 -462.167)" fill="#682d8c"/>
      <path id="Path_31" data-name="Path 31" d="M-990.432,240.11h.184c.025.08.171.1.124.206-.015.034-.1.058-.148.055C-990.445,240.363-990.425,240.226-990.432,240.11Z" transform="translate(-204.334 -459.444)" fill="#682d8c"/>
    </g>
  </g>
</svg>
