<svg xmlns="http://www.w3.org/2000/svg" xmlns:xlink="http://www.w3.org/1999/xlink" width="48" height="48" viewBox="0 0 48 48">
  <defs>
    <clipPath id="clip-bch">
      <rect width="48" height="48"/>
    </clipPath>
  </defs>
  <g id="bch" clip-path="url(#clip-bch)">
    <g id="Group_120" data-name="Group 120" transform="translate(-996 -326)">
      <ellipse id="Ellipse_3" data-name="Ellipse 3" cx="24" cy="24" rx="24" ry="24" transform="translate(996 326)" fill="#fff"/>
      <g id="bitcoin_wallet" transform="translate(996 326)">
        <g id="Canvas" transform="translate(0 0)">
          <g id="Bitcoin" transform="translate(0)">
            <g id="btc">
              <g id="Combined_Shape" data-name="Combined Shape">
                <path id="Path_1" data-name="Path 1" d="M48,24A24,24,0,1,1,24,0,24,24,0,0,1,48,24ZM17.507,11.74l-.018,0h0a.281.281,0,0,0-.042.045A.308.308,0,0,0,17.507,11.74Zm.156.041-.156-.041.209-.156Zm0,0c.358.094.717.175,1.076.257.416.095.833.189,1.249.3s.833.208,1.249.3.833.189,1.249.3c.227.076.3,0,.379-.227.151-.644.3-1.268.454-1.893v0c.151-.624.3-1.248.454-1.89.076-.227.151-.3.379-.227.757.227,1.438.379,2.2.53.227.076.227.151.151.3-.151.606-.3,1.23-.454,1.855s-.3,1.249-.454,1.855a.572.572,0,0,1-.076.3c.3.076.623.151.944.227h0c.322.076.644.151.946.227.051,0,.1-.067.151-.135a.9.9,0,0,1,.076-.093c.227-.984.454-1.893.757-2.877l.227-.909c0-.151.076-.227.227-.151.431.129.862.234,1.306.342h0c.337.082.681.166,1.04.263a.1.1,0,0,1,.076.038.1.1,0,0,0,.076.038c-.227.984-.454,1.893-.681,2.8a6.309,6.309,0,0,1-.3,1.136c-.076.227,0,.3.227.379l2.5,1.136a6.422,6.422,0,0,1,1.968,1.817,4.535,4.535,0,0,1,.454,3.558,4.705,4.705,0,0,1-1.136,2.2,4.628,4.628,0,0,1-1.666.984.271.271,0,0,0-.1.028.5.5,0,0,1-.2.047c.151.114.3.208.454.3h0c.151.095.3.189.454.3a4.774,4.774,0,0,1,1.817,2.574,5.936,5.936,0,0,1-.151,2.574,7.438,7.438,0,0,1-1.363,2.8,4.7,4.7,0,0,1-3.1,1.666,15.675,15.675,0,0,1-4.618-.151.317.317,0,0,0-.454.227c-.151.606-.3,1.23-.454,1.855v.007c-.151.622-.3,1.245-.453,1.848l-.009.038c-.067.271-.083.334-.445.189-.34-.076-.7-.17-1.059-.265h0c-.36-.095-.719-.189-1.06-.265-.227-.076-.227-.151-.151-.3h0c.3-1.287.606-2.573.984-3.784a.663.663,0,0,1,.011-.111c.013-.083.022-.137-.087-.192-.606-.151-1.211-.3-1.893-.454-.076.341-.17.681-.265,1.022h0c-.095.341-.189.681-.265,1.022s-.17.681-.265,1.022h0c-.095.341-.189.681-.265,1.022l-.024.05h0c-.055.117-.078.167-.279.1-.757-.227-1.514-.379-2.271-.53-.227-.076-.227-.151-.151-.3h0c.3-1.287.606-2.574.984-3.785a.271.271,0,0,1,.028-.1h0a.5.5,0,0,0,.047-.2h0c-1.74-.454-3.48-.908-5.3-1.362.076-.151.132-.284.189-.416s.114-.265.189-.416c.3-.681.606-1.363.833-1.968.076-.227.151-.227.379-.227a13.186,13.186,0,0,0,1.666.379.841.841,0,0,0,1.136-.681h0c.984-3.861,1.968-7.722,2.877-11.658a1.312,1.312,0,0,0-.909-1.514c-.548-.183-1.1-.316-1.6-.44l-.365-.09c-.151,0-.227-.076-.151-.227.114-.416.227-.852.341-1.287C17.471,12.5,17.567,12.137,17.663,11.781ZM21.35,30.435a.264.264,0,0,1,.151.076l.57.145h0a17.109,17.109,0,0,0,3.211.611,5.872,5.872,0,0,0,2.574-.227,2.416,2.416,0,0,0,1.211-3.558,4.624,4.624,0,0,0-1.59-1.363,14.811,14.811,0,0,0-4.333-1.336l-.134-.027c-.207-.069-.225-.012-.284.17v0l-.018.055c-.076.379-.17.738-.265,1.1s-.189.719-.265,1.1c-.173.6-.32,1.208-.472,1.825h0C21.6,29.472,21.48,29.947,21.35,30.435Zm7.192-7.874a4.943,4.943,0,0,1-.833.151,14.943,14.943,0,0,1-2.422-.243c-.3-.047-.6-.094-.909-.136-.151-.038-.284-.076-.416-.114s-.265-.076-.416-.114c-.151-.076-.227-.151-.151-.3.454-1.59.833-3.1,1.211-4.694.076-.227.151-.3.379-.227.225.06.448.117.668.174a17.366,17.366,0,0,1,2.588.81,3.6,3.6,0,0,1,1.741,1.438A2.206,2.206,0,0,1,28.543,22.561Z" fill="#4fcd4b" fill-rule="evenodd"/>
              </g>
            </g>
          </g>
          <g id="Bitcoin-2" data-name="Bitcoin" transform="translate(0)">
            <g id="btc-2" data-name="btc">
              <g id="Combined_Shape-2" data-name="Combined Shape">
                <path id="Path_2" data-name="Path 2" d="M48,24A24,24,0,1,1,24,0,24,24,0,0,1,48,24ZM17.507,11.74l-.018,0h0a.281.281,0,0,0-.042.045A.308.308,0,0,0,17.507,11.74Zm.156.041-.156-.041.209-.156Zm0,0c.358.094.717.175,1.076.257.416.095.833.189,1.249.3s.833.208,1.249.3.833.189,1.249.3c.227.076.3,0,.379-.227.151-.644.3-1.268.454-1.893v0c.151-.624.3-1.248.454-1.89.076-.227.151-.3.379-.227.757.227,1.438.379,2.2.53.227.076.227.151.151.3-.151.606-.3,1.23-.454,1.855s-.3,1.249-.454,1.855a.572.572,0,0,1-.076.3c.3.076.623.151.944.227h0c.322.076.644.151.946.227.051,0,.1-.067.151-.135a.9.9,0,0,1,.076-.093c.227-.984.454-1.893.757-2.877l.227-.909c0-.151.076-.227.227-.151.431.129.862.234,1.306.342h0c.337.082.681.166,1.04.263a.1.1,0,0,1,.076.038.1.1,0,0,0,.076.038c-.227.984-.454,1.893-.681,2.8a6.309,6.309,0,0,1-.3,1.136c-.076.227,0,.3.227.379l2.5,1.136a6.422,6.422,0,0,1,1.968,1.817,4.535,4.535,0,0,1,.454,3.558,4.705,4.705,0,0,1-1.136,2.2,4.628,4.628,0,0,1-1.666.984.271.271,0,0,0-.1.028.5.5,0,0,1-.2.047c.151.114.3.208.454.3h0c.151.095.3.189.454.3a4.774,4.774,0,0,1,1.817,2.574,5.936,5.936,0,0,1-.151,2.574,7.438,7.438,0,0,1-1.363,2.8,4.7,4.7,0,0,1-3.1,1.666,15.675,15.675,0,0,1-4.618-.151.317.317,0,0,0-.454.227c-.151.606-.3,1.23-.454,1.855v.007c-.151.622-.3,1.245-.453,1.848l-.009.038c-.067.271-.083.334-.445.189-.34-.076-.7-.17-1.059-.265h0c-.36-.095-.719-.189-1.06-.265-.227-.076-.227-.151-.151-.3h0c.3-1.287.606-2.573.984-3.784a.663.663,0,0,1,.011-.111c.013-.083.022-.137-.087-.192-.606-.151-1.211-.3-1.893-.454-.076.341-.17.681-.265,1.022h0c-.095.341-.189.681-.265,1.022s-.17.681-.265,1.022h0c-.095.341-.189.681-.265,1.022l-.024.05h0c-.055.117-.078.167-.279.1-.757-.227-1.514-.379-2.271-.53-.227-.076-.227-.151-.151-.3h0c.3-1.287.606-2.574.984-3.785a.271.271,0,0,1,.028-.1h0a.5.5,0,0,0,.047-.2h0c-1.74-.454-3.48-.908-5.3-1.362.076-.151.132-.284.189-.416s.114-.265.189-.416c.3-.681.606-1.363.833-1.968.076-.227.151-.227.379-.227a13.186,13.186,0,0,0,1.666.379.841.841,0,0,0,1.136-.681h0c.984-3.861,1.968-7.722,2.877-11.658a1.312,1.312,0,0,0-.909-1.514c-.548-.183-1.1-.316-1.6-.44l-.365-.09c-.151,0-.227-.076-.151-.227.114-.416.227-.852.341-1.287C17.471,12.5,17.567,12.137,17.663,11.781ZM21.35,30.435a.264.264,0,0,1,.151.076l.57.145h0a17.109,17.109,0,0,0,3.211.611,5.872,5.872,0,0,0,2.574-.227,2.416,2.416,0,0,0,1.211-3.558,4.624,4.624,0,0,0-1.59-1.363,14.811,14.811,0,0,0-4.333-1.336l-.134-.027c-.207-.069-.225-.012-.284.17v0l-.018.055c-.076.379-.17.738-.265,1.1s-.189.719-.265,1.1c-.173.6-.32,1.208-.472,1.825h0C21.6,29.472,21.48,29.947,21.35,30.435Zm7.192-7.874a4.943,4.943,0,0,1-.833.151,14.943,14.943,0,0,1-2.422-.243c-.3-.047-.6-.094-.909-.136-.151-.038-.284-.076-.416-.114s-.265-.076-.416-.114c-.151-.076-.227-.151-.151-.3.454-1.59.833-3.1,1.211-4.694.076-.227.151-.3.379-.227.225.06.448.117.668.174a17.366,17.366,0,0,1,2.588.81,3.6,3.6,0,0,1,1.741,1.438A2.206,2.206,0,0,1,28.543,22.561Z" fill="#4fcd4b" fill-rule="evenodd"/>
              </g>
            </g>
          </g>
        </g>
      </g>
    </g>
  </g>
</svg>
