<?xml version="1.0" encoding="utf-8"?>
<!-- Generator: Adobe Illustrator 19.0.0, SVG Export Plug-In . SVG Version: 6.00 Build 0)  -->
<svg version="1.1" id="Layer_1" xmlns="http://www.w3.org/2000/svg" xmlns:xlink="http://www.w3.org/1999/xlink" x="0px" y="0px"
	 viewBox="-47 48 105 105" style="enable-background:new -47 48 105 105;" xml:space="preserve">
<style type="text/css">
	.st0{clip-path:url(#SVGID_2_);}
	.st1{fill:#FFFFFF;}
	.st2{fill:#3F5EAB;enable-background:new    ;}
</style>
<g>
	<defs>
		<rect id="SVGID_1_" x="-47" y="48" width="105" height="105"/>
	</defs>
	<clipPath id="SVGID_2_">
		<use xlink:href="#SVGID_1_"  style="overflow:visible;"/>
	</clipPath>
	<g id="omisegocoin" class="st0">
		<circle id="Ellipse_2" class="st1" cx="5.5" cy="100.5" r="52.5"/>
		<path class="st2" d="M-8.3,103.7c-7.5,0-13.5,6.1-13.5,13.5c0,7.5,6,13.5,13.5,13.5s13.5-6.1,13.5-13.5
			C5.3,109.7-0.8,103.7-8.3,103.7L-8.3,103.7L-8.3,103.7z M-8.3,126.7c-5.2,0-9.4-4.2-9.4-9.4s4.2-9.4,9.4-9.4s9.4,4.2,9.4,9.4
			C1.2,122.4-3.1,126.7-8.3,126.7z M20.6,74.8c-7.5,0-13.5,6.1-13.5,13.5s6,13.5,13.5,13.5s13.5-6.1,13.5-13.5S28.1,74.8,20.6,74.8
			L20.6,74.8z M20.6,97.8c-5.2,0-9.4-4.2-9.4-9.4s4.2-9.4,9.4-9.4s9.4,4.2,9.4,9.4C30,93.5,25.8,97.8,20.6,97.8L20.6,97.8z
			 M-8.3,74.8c-6.4,0-12,4.5-13.3,10.9c-1.3,6.3,2.1,12.7,8,15.2c6.9,2.9,14.8-0.3,17.7-7.2c2.1-5,1-10.8-2.8-14.7h3.8v-4.1H-8.3z
			 M1.2,88.3c0,5.2-4.2,9.4-9.4,9.4s-9.4-4.2-9.4-9.4c0-5.2,4.2-9.4,9.4-9.4S1.2,83.1,1.2,88.3L1.2,88.3L1.2,88.3z"/>
	</g>
</g>
</svg>
