<svg xmlns="http://www.w3.org/2000/svg" xmlns:xlink="http://www.w3.org/1999/xlink" width="48" height="48" viewBox="0 0 48 48">
  <defs>
    <clipPath id="clip-thenux">
      <rect width="48" height="48"/>
    </clipPath>
  </defs>
  <g id="thenux" clip-path="url(#clip-thenux)">
    <g id="tnc_coin" transform="translate(-420.679 -442.809)">
      <path id="Path_3525" data-name="Path 3525" d="M444.679,490.809a24,24,0,1,1,24-24A24,24,0,0,1,444.679,490.809Z" transform="translate(0 0)" fill="#cea345"/>
      <path id="Path_3526" data-name="Path 3526" d="M448.119,493.519a23.27,23.27,0,1,1,23.27-23.27A23.27,23.27,0,0,1,448.119,493.519Z" transform="translate(-3.44 -3.44)" fill="#f7db81"/>
      <path id="Path_3527" data-name="Path 3527" d="M450.827,495.653a22.7,22.7,0,1,1,22.7-22.7A22.7,22.7,0,0,1,450.827,495.653Z" transform="translate(-6.147 -6.148)" fill="#e1b045"/>
      <g id="Group_4656" data-name="Group 4656" transform="translate(424.257 445.31)">
        <path id="Path_3528" data-name="Path 3528" d="M552.283,457.283l.379.768a.34.34,0,0,0,.256.186l.847.123a.34.34,0,0,1,.188.58l-.613.6a.34.34,0,0,0-.1.3l.145.844a.34.34,0,0,1-.493.358l-.758-.4a.34.34,0,0,0-.316,0l-.758.4a.34.34,0,0,1-.493-.358l.145-.844a.34.34,0,0,0-.1-.3l-.613-.6a.34.34,0,0,1,.189-.58l.847-.123a.34.34,0,0,0,.256-.186l.379-.768A.34.34,0,0,1,552.283,457.283Z" transform="translate(-530.855 -457.094)" fill="#f8e16e"/>
        <path id="Path_3529" data-name="Path 3529" d="M484.317,478.813l.379.768a.34.34,0,0,0,.256.186l.847.123a.34.34,0,0,1,.189.58l-.613.6a.34.34,0,0,0-.1.3l.145.844a.34.34,0,0,1-.493.358l-.758-.4a.339.339,0,0,0-.316,0l-.758.4a.34.34,0,0,1-.493-.358l.145-.844a.341.341,0,0,0-.1-.3l-.613-.6a.34.34,0,0,1,.188-.58l.847-.123a.34.34,0,0,0,.256-.186l.379-.768A.34.34,0,0,1,484.317,478.813Z" transform="translate(-474.787 -474.854)" fill="#f8e16e"/>
        <path id="Path_3530" data-name="Path 3530" d="M443.5,533.6l.379.768a.34.34,0,0,0,.256.186l.847.123a.34.34,0,0,1,.188.58l-.613.6a.34.34,0,0,0-.1.3l.145.844a.34.34,0,0,1-.493.358l-.758-.4a.34.34,0,0,0-.316,0l-.758.4a.34.34,0,0,1-.493-.358l.145-.844a.34.34,0,0,0-.1-.3l-.613-.6a.34.34,0,0,1,.188-.58l.847-.123a.34.34,0,0,0,.256-.186l.379-.768A.34.34,0,0,1,443.5,533.6Z" transform="translate(-441.115 -520.048)" fill="#f8e16e"/>
        <path id="Path_3531" data-name="Path 3531" d="M443.5,605.67l.379.768a.341.341,0,0,0,.256.186l.847.123a.34.34,0,0,1,.188.58l-.613.6a.34.34,0,0,0-.1.3l.145.844a.34.34,0,0,1-.493.358l-.758-.4a.34.34,0,0,0-.316,0l-.758.4a.34.34,0,0,1-.493-.358l.145-.844a.34.34,0,0,0-.1-.3l-.613-.6a.34.34,0,0,1,.188-.58l.847-.123a.34.34,0,0,0,.256-.186l.379-.768A.34.34,0,0,1,443.5,605.67Z" transform="translate(-441.115 -579.502)" fill="#f8e16e"/>
        <path id="Path_3532" data-name="Path 3532" d="M484.317,660.209l.379.768a.34.34,0,0,0,.256.186l.847.123a.34.34,0,0,1,.189.58l-.613.6a.34.34,0,0,0-.1.3l.145.844a.34.34,0,0,1-.493.358l-.758-.4a.34.34,0,0,0-.316,0l-.758.4a.34.34,0,0,1-.493-.358l.145-.844a.341.341,0,0,0-.1-.3l-.613-.6a.34.34,0,0,1,.188-.58l.847-.123a.34.34,0,0,0,.256-.186l.379-.768A.34.34,0,0,1,484.317,660.209Z" transform="translate(-474.787 -624.493)" fill="#f8e16e"/>
        <path id="Path_3533" data-name="Path 3533" d="M553.128,682.983l.379.768a.34.34,0,0,0,.256.186l.847.123a.34.34,0,0,1,.188.58l-.613.6a.34.34,0,0,0-.1.3l.145.844a.34.34,0,0,1-.493.359l-.758-.4a.339.339,0,0,0-.316,0l-.758.4a.34.34,0,0,1-.493-.359l.145-.844a.34.34,0,0,0-.1-.3l-.613-.6a.34.34,0,0,1,.188-.58l.847-.123a.339.339,0,0,0,.256-.186l.379-.768A.34.34,0,0,1,553.128,682.983Z" transform="translate(-531.552 -643.281)" fill="#f8e16e"/>
        <path id="Path_3534" data-name="Path 3534" d="M620.25,656.869l.379.768a.34.34,0,0,0,.256.186l.847.123a.34.34,0,0,1,.188.58l-.613.6a.34.34,0,0,0-.1.3l.145.844a.34.34,0,0,1-.493.358l-.758-.4a.341.341,0,0,0-.316,0l-.758.4a.34.34,0,0,1-.493-.358l.145-.844a.34.34,0,0,0-.1-.3l-.613-.6a.34.34,0,0,1,.188-.58l.847-.123a.341.341,0,0,0,.256-.186l.379-.768A.34.34,0,0,1,620.25,656.869Z" transform="translate(-586.923 -621.738)" fill="#f8e16e"/>
        <path id="Path_3535" data-name="Path 3535" d="M618.939,478.813l.379.768a.34.34,0,0,0,.256.186l.847.123a.34.34,0,0,1,.189.58l-.613.6a.341.341,0,0,0-.1.3l.145.844a.34.34,0,0,1-.493.358l-.758-.4a.339.339,0,0,0-.317,0l-.758.4a.34.34,0,0,1-.493-.358l.145-.844a.34.34,0,0,0-.1-.3l-.613-.6a.34.34,0,0,1,.189-.58l.847-.123a.34.34,0,0,0,.256-.186l.379-.768A.34.34,0,0,1,618.939,478.813Z" transform="translate(-585.842 -474.854)" fill="#f8e16e"/>
        <path id="Path_3536" data-name="Path 3536" d="M658.792,535.395l.379.768a.34.34,0,0,0,.256.186l.847.123a.34.34,0,0,1,.189.58l-.613.6a.34.34,0,0,0-.1.3l.145.844a.34.34,0,0,1-.493.358l-.758-.4a.34.34,0,0,0-.317,0l-.758.4a.34.34,0,0,1-.493-.358l.145-.844a.34.34,0,0,0-.1-.3l-.613-.6a.34.34,0,0,1,.188-.58l.847-.123a.34.34,0,0,0,.256-.186l.379-.768A.34.34,0,0,1,658.792,535.395Z" transform="translate(-618.717 -521.53)" fill="#f8e16e"/>
        <path id="Path_3537" data-name="Path 3537" d="M658.031,605.67l.379.768a.34.34,0,0,0,.256.186l.847.123a.34.34,0,0,1,.188.58l-.613.6a.34.34,0,0,0-.1.3l.145.844a.34.34,0,0,1-.493.358l-.758-.4a.34.34,0,0,0-.316,0l-.758.4a.34.34,0,0,1-.493-.358l.145-.844a.34.34,0,0,0-.1-.3l-.613-.6a.34.34,0,0,1,.188-.58l.847-.123a.341.341,0,0,0,.256-.186l.379-.768A.34.34,0,0,1,658.031,605.67Z" transform="translate(-618.089 -579.502)" fill="#f8e16e"/>
      </g>
      <g id="Group_4657" data-name="Group 4657" transform="translate(428.472 450.658)">
        <path id="Path_3538" data-name="Path 3538" d="M481.984,521.222a16.79,16.79,0,1,1,16.79-16.79A16.79,16.79,0,0,1,481.984,521.222Z" transform="translate(-465.194 -487.642)" fill="#a57c29"/>
        <path id="Path_3539" data-name="Path 3539" d="M483.938,522.762a16.375,16.375,0,1,1,16.375-16.376A16.375,16.375,0,0,1,483.938,522.762Z" transform="translate(-467.147 -489.596)" fill="#fadd7a"/>
      </g>
      <g id="Group_4662" data-name="Group 4662" transform="translate(435.115 457.03)">
        <g id="Group_4659" data-name="Group 4659" transform="translate(0)">
          <g id="Group_4658" data-name="Group 4658">
            <path id="Path_3540" data-name="Path 3540" d="M513.357,524.041a11.346,11.346,0,0,1,3.869.666,10.169,10.169,0,0,1,3.238,1.866,9.391,9.391,0,0,1,2.229,2.837,7.642,7.642,0,0,1,.841,3.542V540a2.264,2.264,0,0,1-.778,1.714,2.851,2.851,0,0,1-1.914.762,3,3,0,0,1-1.956-.666,2.09,2.09,0,0,1-.82-1.695v-6.855a3.937,3.937,0,0,0-.358-1.656,3.993,3.993,0,0,0-1.009-1.352,5.18,5.18,0,0,0-1.514-.914,5.022,5.022,0,0,0-1.871-.343,4.882,4.882,0,0,0-1.767.324,5.1,5.1,0,0,0-1.472.857,4.017,4.017,0,0,0-1.009,1.295,3.55,3.55,0,0,0-.379,1.6V540a2.251,2.251,0,0,1-.841,1.733,2.84,2.84,0,0,1-1.935.742,2.974,2.974,0,0,1-1.935-.685,2.087,2.087,0,0,1-.841-1.676v-6.855a8.859,8.859,0,0,1,.82-3.58,9.214,9.214,0,0,1,2.145-2.932,10.163,10.163,0,0,1,3.217-1.98A11,11,0,0,1,513.357,524.041Z" transform="translate(-503.137 -524.041)" fill="#a57c29"/>
          </g>
        </g>
        <g id="Group_4661" data-name="Group 4661" transform="translate(0.547 0.313)">
          <g id="Group_4660" data-name="Group 4660">
            <path id="Path_3541" data-name="Path 3541" d="M516.535,525.827a11.641,11.641,0,0,1,3.89.655,10.284,10.284,0,0,1,3.256,1.834,9.268,9.268,0,0,1,2.241,2.789,7.376,7.376,0,0,1,.846,3.481v6.926a2.2,2.2,0,0,1-.782,1.685,2.9,2.9,0,0,1-1.924.749,3.063,3.063,0,0,1-1.966-.655,2.037,2.037,0,0,1-.825-1.666v-6.738a3.8,3.8,0,0,0-.359-1.628,3.937,3.937,0,0,0-1.015-1.329,5.24,5.24,0,0,0-1.522-.9,5.153,5.153,0,0,0-1.882-.337,5.007,5.007,0,0,0-1.776.318,5.144,5.144,0,0,0-1.48.842,3.965,3.965,0,0,0-1.015,1.273,3.429,3.429,0,0,0-.381,1.572v6.813a2.194,2.194,0,0,1-.846,1.7,2.893,2.893,0,0,1-1.945.73,3.033,3.033,0,0,1-1.945-.674,2.035,2.035,0,0,1-.846-1.647v-6.738a8.544,8.544,0,0,1,.825-3.519,9.076,9.076,0,0,1,2.157-2.883,10.258,10.258,0,0,1,3.235-1.947A11.28,11.28,0,0,1,516.535,525.827Z" transform="translate(-506.26 -525.827)" fill="#cea345"/>
          </g>
        </g>
      </g>
    </g>
  </g>
</svg>
