<?xml version="1.0" encoding="utf-8"?>
<!-- Generator: Adobe Illustrator 19.0.0, SVG Export Plug-In . SVG Version: 6.00 Build 0)  -->
<svg version="1.1" id="Layer_11_copy_8" xmlns="http://www.w3.org/2000/svg" xmlns:xlink="http://www.w3.org/1999/xlink" x="0px"
	 y="0px" viewBox="0 0 600 600" style="enable-background:new 0 0 600 600;" xml:space="preserve">
<style type="text/css">
	.st0{fill:#64CD58;}
	.st1{fill:none;stroke:#FFFFFF;stroke-width:14.9107;stroke-linecap:round;stroke-linejoin:round;stroke-miterlimit:10;}
	.st2{fill:#FFFFFF;}
</style>
<g>
	<circle class="st0" cx="300" cy="300" r="300"/>
	<circle class="st1" cx="300" cy="300" r="258.7"/>
</g>
<path class="st2" d="M480.3,180.3h-88.7h-7.5v7.5v13.2v6.8l6.7,0.7c4.7,0.5,19,1.9,21.9,5.8c1.8,2.6,0.4,10.1-1.2,17.1
	c-4.2,17.2-16.4,64.1-29.2,106.9c-18.6-49.5-37.4-100.1-56.1-150.8l-1.8-4.9h-5.2h-18.1h-5.5l-1.6,5.3
	c-15.4,50.6-31.6,99.8-47.4,147.6c-10-32.4-20.5-68.2-31.9-108.6c-1-3.5-3.2-11.7-2-13.5c0.7-1.1,4.3-3.2,19.5-5l6.6-0.8v-6.6v-13.2
	v-7.5h-7.5H119.7h-7.5v7.5v13.2v6.4l6.3,1c18.9,2.9,23.4,5.8,31.7,32.9c18.8,59.5,35.8,116.1,53.8,176l6.6,22l1.6,5.3h5.5h20h5.4
	l1.7-5.1c16.2-49.7,33.5-100.3,50.1-148.7c2.1,5.7,4.2,11.3,6.2,16.9c16.6,45,32.3,87.5,48.4,132l1.8,4.9h5.2h19.6h5.5l1.6-5.3
	c36.5-121.7,58.5-183.8,62.5-195l0-0.1l0-0.1c9.4-29.3,13.6-32,35.6-35.7l6.2-1v-6.3v-13.2v-7.5H480.3z"/>
</svg>
