<?xml version="1.0" encoding="utf-8"?>
<!-- Generator: Adobe Illustrator 19.0.0, SVG Export Plug-In . SVG Version: 6.00 Build 0)  -->
<svg version="1.1" id="Layer_1" xmlns="http://www.w3.org/2000/svg" xmlns:xlink="http://www.w3.org/1999/xlink" x="0px" y="0px"
	 viewBox="0 0 511.2 244.3" style="enable-background:new 0 0 511.2 244.3;" xml:space="preserve">
<style type="text/css">
	.st0{fill:#FFFFFF;}
</style>
<g>
	<path class="st0" d="M0,102.9c2.3-8.1,4.1-16.4,7-24.3c27.5-73.7,118.4-102,183-57c5.6,3.9,7.8,9.2,6.3,15
		c-1.3,5.1-5.3,9.1-10.7,8.8c-4.1-0.2-8.5-1.8-11.9-4.1c-35-23.4-80-22.2-112.2,4.3c-31.3,25.7-43.4,59.4-34,98.7
		c9.3,39.1,35.3,63.3,74.7,71.1c32.7,6.4,61.6-2.8,85.8-26c1.1-1,2-2.2,2.9-3.4c4.7-6.4,12.4-8,17.8-3.8c6.4,5,7.5,13.1,2,19.3
		c-18.1,20.1-39.4,35.3-66.6,40.6C76.3,255.2,13,211.5,0.9,143.2c-0.1-0.8-0.6-1.5-0.9-2.3C0,128.2,0,115.6,0,102.9z"/>
	<path class="st0" d="M454.1,165.4c10.1-14.9,19.8-29.2,29.7-43.9c-6.4-9.7-12.7-19.4-19.1-29.1c-3.4-5.1-5.8-12.2-10.6-14.8
		c-4.8-2.6-12-0.9-18.2-0.9c-73.2,0-146.3,0-219.5,0c-2.2,0-4.4,0-6.5-0.3c-6.8-1.2-10.4-6-10.2-13.2c0.2-6.7,4.3-11.2,11-12.1
		c1.6-0.2,3.3-0.1,5-0.1c80.5,0,161,0,241.5-0.1c7.2,0,12.3,2.7,16.2,8.7c11.4,17.4,23,34.7,34.6,52c4.3,6.3,4.2,12.2,0,18.5
		c-12.9,19.4-25.6,39-38.7,58.2c-1.6,2.3-5.3,4.2-8.2,4.5c-9.7,0.8-18.4-2.6-25.7-8.9c-4.4-3.8-8.4-8.1-12.7-12
		c-6.7-6-14.5-6-21.1,0c-3,2.7-5.6,5.7-8.4,8.6c-15.2,15.8-38.7,17.2-55.5,3.1c-3.8-3.2-7.2-6.9-10.8-10.4
		c-8.2-7.8-15.8-7.8-24.1,0.1c-2.5,2.4-4.8,5.1-7.2,7.6c-15.3,15.6-39.1,16.6-55.6,2.3c-3.5-3-6.5-6.7-10.1-9.7
		c-2.9-2.4-6.1-4.7-9.5-6.2c-6.9-3.1-11-10.2-8.9-16.4c2.4-6.9,10-10.5,17.5-8.3c8.1,2.4,14.8,7.1,20.3,13.2
		c13.5,15.2,22.5,12.7,34.4-0.8c16.4-18.7,41.7-19.5,59.8-2.3c3.3,3.1,6.3,6.4,9.7,9.4c6.6,5.8,14.1,5.7,20.7,0
		c2.7-2.4,5.2-5.2,7.7-7.9c15.6-17,40-18.4,57.3-3.1C444,155.5,448.8,160.3,454.1,165.4z"/>
	<path class="st0" d="M126.2,67.8c9.1,0.1,21.6,5.1,31.7,15.7c5.8,6.1,6.1,13.3,0.9,18.7c-5.2,5.3-12.2,5.2-18.6-0.5
		c-10.2-9-24-10.6-34.7-4.1c-11.3,6.9-16.9,20.7-13.6,33.2c5.4,20.1,32.1,27.7,47.7,13.8c2.9-2.5,7.1-4.6,10.8-4.9
		c5.2-0.5,9.1,3,11.1,7.9c2,4.9,0.8,9.4-2.6,13.4c-17.7,20.6-52.2,22.6-73,4.2c-19.8-17.6-26-42.4-16-64.5
		C78.5,81.6,100,67.7,126.2,67.8z"/>
</g>
</svg>
