<?xml version="1.0" encoding="utf-8"?>
<!-- Generator: Adobe Illustrator 19.0.0, SVG Export Plug-In . SVG Version: 6.00 Build 0)  -->
<svg version="1.1" id="Layer_1" xmlns="http://www.w3.org/2000/svg" xmlns:xlink="http://www.w3.org/1999/xlink" x="0px" y="0px"
	 viewBox="-113 240.1 368 362.8" style="enable-background:new -113 240.1 368 362.8;" xml:space="preserve">
<g>
	<path d="M223.5,367.6c0-22.6-12.3-35-34.7-35c-62.8,0-117.8,0-168.2,0c-21.3,0-34.1,12.7-34.1,34c0,24.3,0,25.7,0,32
		c0,4.1,0,10.2,0,25.8l0,34.2c0,28,0,55.9,0,83.9c0,23.8,11.9,35.8,35.5,35.8c30.7,0,58.8,0,85.3,0c28.7,0,55.5,0,81.4,0
		c22.5,0,34.9-12.4,34.9-34.8C223.5,464.3,223.5,446.9,223.5,367.6z M3.7,399.5c0-6.7,0-7.7,0-32.4c0-12.4,4.9-17.3,17.3-17.3
		c50.4,0,105.2,0,167.5,0c13.1,0,17.8,4.6,17.8,17.6c0,79.2,0,96.7,0,175.9c0,12.9-4.8,17.7-17.7,17.7c-50.4,0-104.9,0-166.7,0
		c-13.5,0-18.1-4.5-18.1-18c0-28.5,0-57,0-85.5l0-32.5C3.7,409.9,3.7,403.6,3.7,399.5z"/>
	<path d="M-25,497.9c-1.6-1.9-3.5-4-6.1-4.4c-3.8-0.7-7.6-0.6-11.3-0.4c-1.5,0.1-3.1,0.1-4.5,0.1c-12.9-0.1-17.2-4.4-17.2-17.1
		c0-42.4,0-55.2,0-79.4l0-42.6c0-5.5,0-10.9,0-16.4c0-12.8,0-26.1,0-39.2c0-12.3,4.5-16.6,16.9-16.6c50.8,0,105.9,0,168.3,0
		c12.9,0,17.3,4.3,17.4,17c0,1.7,0,3.4-0.1,5.1c-0.1,4-0.3,8.2,0.4,12.2c0.5,2.7,2.6,4.7,4.5,6.5c0.7,0.7,1.5,1.4,2,2
		c0.5,0.5,1.2,0.9,1.9,0.9c0,0,0,0,0,0c0.7,0,1.4-0.3,1.9-0.9c0.5-0.7,1.2-1.3,2-2.1c1.9-1.8,4-3.9,4.4-6.5
		c0.7-5.1,0.5-10.3,0.4-15.3c0-1.5-0.1-2.9-0.1-4.4c-0.3-19.3-12.9-31.8-32.1-31.9c-26.4-0.1-53.1-0.1-79.1,0c-10.4,0-20.9,0-31.3,0
		c-6.2,0-12.5,0-18.8,0c-14.1,0-28.7,0-43,0c-20.2,0.1-32.8,12.6-32.8,32.7c-0.1,28.6,0,57.7,0,85.8c0,11.8,0,23.6,0,35.4
		c0,15.5,0,21.7,0,25.8c0,6.4,0,7.7,0,32.1c0,21.8,12.1,33.9,33.9,34c1.5,0,3,0.1,4.4,0.1c1.6,0.1,3.2,0.1,4.8,0.1
		c2.5,0,4.9-0.1,7.4-0.6c2.6-0.5,4.4-2.7,6-4.6c0.6-0.7,1.2-1.5,1.8-2c0.5-0.5,0.8-1.1,0.8-1.8c0-0.7-0.3-1.3-0.8-1.8
		C-23.8,499.3-24.4,498.6-25,497.9z"/>
</g>
</svg>
