<svg id="Layer_1" data-name="Layer 1" xmlns="http://www.w3.org/2000/svg" viewBox="0 0 103.5 102.3"><defs><style>.cls-1{fill:none;stroke:#fff;stroke-miterlimit:10;}.cls-2{fill:#fff;}</style></defs><title>icon</title><circle class="cls-1" cx="71.17" cy="83.47" r="15.99"/><path class="cls-2" d="M105.65,81.47a13.29,13.29,0,0,0-4.61.86c.25,1,.48,2,.69,2.84a10.58,10.58,0,1,1-3.78,17l-2.11,2a13.5,13.5,0,1,0,9.81-22.76Z" transform="translate(-15.66 -8.24)"/><path class="cls-2" d="M53.48,77v5H49.2V77c-6-.65-9.15-4.17-10.46-9.84l6.61-1.72c.2.66.34,1.25.54,1.82a6,6,0,0,0,8.23,3.25A3.8,3.8,0,0,0,56.2,67a3.17,3.17,0,0,0-1.88-3.21c-1.35-.63-2.73-1.17-4.1-1.74-1.58-.66-3.21-1.23-4.76-2A9.14,9.14,0,0,1,40,51.47C39.94,47.4,41.36,44,45.08,42a27,27,0,0,1,4.07-1.47V36.8h4.31v3.87c5,.62,8,3.44,9.36,8.19l-5.9,2.42c-.12-.26-.21-.51-.35-.75A17.18,17.18,0,0,0,55,47.89a4.39,4.39,0,0,0-6.46-.35c-1.3,1.39-1.59,4.4.86,5.52,1.86.85,3.78,1.57,5.66,2.38,1.21.52,2.43,1,3.6,1.64A9.6,9.6,0,0,1,63.87,67c-.62,5.62-4,9.05-9.6,9.85Z" transform="translate(-15.66 -8.24)"/><path class="cls-2" d="M66.74,106.2h-41c-4.14,0-5.76-1.59-5.76-5.71V18.28c0-4,1.67-5.71,5.57-5.71,12.9,0,25.81,0,39.1,0,0,6.26,0,12.26,0,18.26,0,3.59.48,4.08,4.1,4.08H87V68.45l4.27-.22c0-11.5,0-23,0-34.49a5.18,5.18,0,0,0-1.37-3.26Q79.63,20,69.18,9.83a5.86,5.86,0,0,0-3.69-1.51c-13.38-.11-26.76-.08-40.14-.06-6.14,0-9.68,3.58-9.68,9.74q0,20.67,0,41.33,0,21,0,42.05c0,5.3,3.59,9.13,8.8,9.14q21.22.06,42.44,0Zm2.38-89.77q7,7,13.95,14H69.12Z" transform="translate(-15.66 -8.24)"/></svg>