<?xml version="1.0" encoding="utf-8"?>
<!-- Generator: Adobe Illustrator 19.0.0, SVG Export Plug-In . SVG Version: 6.00 Build 0)  -->
<svg version="1.1" id="Layer_1" xmlns="http://www.w3.org/2000/svg" xmlns:xlink="http://www.w3.org/1999/xlink" x="0px" y="0px"
	 viewBox="0 0 50 50" style="enable-background:new 0 0 50 50;" xml:space="preserve">
<style type="text/css">
	.st0{fill:url(#XMLID_2_);}
	.st1{fill:#FFFFFF;}
</style>
<g id="XMLID_560_">
	<linearGradient id="XMLID_2_" gradientUnits="userSpaceOnUse" x1="7.3601" y1="24.2959" x2="42.6399" y2="24.2959">
		<stop  offset="3.150902e-002" style="stop-color:#DE2D64"/>
		<stop  offset="1" style="stop-color:#95247B"/>
	</linearGradient>
	<path id="XMLID_564_" class="st0" d="M38.3,32.5c2.7-3.1,4.3-7.2,4.3-11.6c0-9.7-7.9-17.6-17.6-17.6c-9.7,0-17.6,7.9-17.6,17.6
		c0,9.2,7.1,16.8,16.1,17.6v6.9l11.1-9.1C36.1,34.9,37.2,33.7,38.3,32.5L38.3,32.5L38.3,32.5z"/>
	<g id="XMLID_561_">
		<path id="XMLID_562_" class="st1" d="M25.1,12c1.3,0,2.5,0.2,3.6,0.6c1.2,0.4,2.2,1,3,1.7c0.9,0.7,1.6,1.6,2.1,2.6
			c0.5,1,0.8,2.1,0.8,3.2v6.5c0,0.6-0.2,1.1-0.7,1.6c-0.5,0.4-1.1,0.7-1.8,0.7c-0.7,0-1.3-0.2-1.8-0.6c-0.5-0.4-0.8-0.9-0.8-1.6
			v-6.3c0-0.5-0.1-1-0.3-1.5c-0.2-0.5-0.5-0.9-0.9-1.2c-0.4-0.3-0.9-0.6-1.4-0.8c-0.5-0.2-1.1-0.3-1.8-0.3c-0.6,0-1.1,0.1-1.7,0.3
			c-0.5,0.2-1,0.5-1.4,0.8c-0.4,0.3-0.7,0.7-0.9,1.2c-0.2,0.5-0.4,1-0.4,1.5v6.4c0,0.6-0.3,1.1-0.8,1.6c-0.5,0.5-1.1,0.7-1.8,0.7
			c-0.7,0-1.3-0.2-1.8-0.6c-0.5-0.4-0.8-0.9-0.8-1.5v-6.3c0-1.2,0.3-2.3,0.8-3.3c0.5-1,1.2-1.9,2-2.7c0.9-0.8,1.9-1.4,3-1.8
			C22.5,12.2,23.8,12,25.1,12z"/>
	</g>
</g>
</svg>
