<svg xmlns="http://www.w3.org/2000/svg" xmlns:xlink="http://www.w3.org/1999/xlink" width="48" height="48" viewBox="0 0 48 48">
  <defs>
    <linearGradient id="linear-gradient" x1="0.828" y1="0.014" x2="0.146" y2="0.94" gradientUnits="objectBoundingBox">
      <stop offset="0" stop-color="#ababab"/>
      <stop offset="1" stop-color="#626262"/>
    </linearGradient>
    <clipPath id="clip-ltc">
      <rect width="48" height="48"/>
    </clipPath>
  </defs>
  <g id="ltc" clip-path="url(#clip-ltc)">
    <g id="Group_5148" data-name="Group 5148" transform="translate(88 63)">
      <g id="litecoin_wallet" transform="translate(-88 -63)">
        <circle id="Ellipse_1672" data-name="Ellipse 1672" cx="24" cy="24" r="24" fill="#fff"/>
        <g id="Group_5147" data-name="Group 5147">
          <path id="Path_2576" data-name="Path 2576" d="M3135.5,1036h3c.12.026.24.059.361.077,1.125.166,2.263.269,3.373.5a24.019,24.019,0,0,1,18.3,18.649c.189.991.312,1.994.465,2.992v3.656a1.952,1.952,0,0,0-.079.261c-.163,1.047-.271,2.106-.491,3.141a24.029,24.029,0,0,1-19.115,18.353c-.811.137-1.627.247-2.44.37h-3.656c-.121-.027-.24-.062-.362-.081-1.048-.163-2.108-.271-3.143-.492a24.019,24.019,0,0,1-18.345-19.246c-.145-.89-.247-1.787-.369-2.681v-3c.027-.136.06-.272.081-.409.193-1.231.308-2.48.589-3.691a23.985,23.985,0,0,1,19.195-18.034C3133.74,1036.22,3134.621,1036.121,3135.5,1036Zm-1.007,30.679c.015-.113.018-.174.03-.234.459-2.2.91-4.4,1.389-6.593a1.05,1.05,0,0,1,.41-.57c2.3-1.592,4.606-3.165,6.907-4.75.159-.109.36-.26.4-.424.3-1.32.563-2.649.86-4.087l-7.615,5.236c.732-3.5,1.44-6.876,2.151-10.275h-5.84c-.043.179-.084.329-.115.481q-1.471,7.03-2.936,14.062a1.01,1.01,0,0,1-.466.7c-.823.538-1.62,1.117-2.438,1.662a.99.99,0,0,0-.491.732c-.151,1-.351,2-.529,3-.033.183-.055.369-.1.655l3.032-2.073c-.538,2.572-1.049,5.023-1.565,7.494h18.759c.343-1.664.68-3.305,1.031-5.012Z" transform="translate(-3113 -1036)" fill="url(#linear-gradient)"/>
        </g>
      </g>
    </g>
  </g>
</svg>
