<?xml version="1.0" encoding="utf-8"?>
<!-- Generator: Adobe Illustrator 19.0.0, SVG Export Plug-In . SVG Version: 6.00 Build 0)  -->
<svg version="1.1" id="Layer_1" xmlns="http://www.w3.org/2000/svg" xmlns:xlink="http://www.w3.org/1999/xlink" x="0px" y="0px"
	 viewBox="0 0 95.5 95.7" style="enable-background:new 0 0 95.5 95.7;" xml:space="preserve">
<style type="text/css">
	.st0{fill:url(#SVGID_1_);}
	.st1{fill:#FDFFFE;}
	.st2{fill:#231917;}
</style>
<linearGradient id="SVGID_1_" gradientUnits="userSpaceOnUse" x1="5.086263e-006" y1="47.843" x2="95.4625" y2="47.843">
	<stop  offset="0" style="stop-color:#51C2C6"/>
	<stop  offset="1" style="stop-color:#231917"/>
</linearGradient>
<path class="st0" d="M47.8,0c27.1,1.1,47.8,21,47.7,48.1c-0.1,27.1-20.9,47.7-48,47.5C20.5,95.5,0,75,0,48C0,20.9,20.7,1,47.8,0z"/>
<path class="st1" d="M47.7,67.5c-5.3,0-10.7-0.2-16,0.1c-3.8,0.2-4.7-1.5-4.1-4.8c0.8-4.2,2.4-7.9,5.5-10.9c0.9-0.8,1.8-2.5,3.2-1
	c1,1.1,0,2.1-0.8,3c-2,2.1-3.3,4.5-4.3,7.2c-0.7,2.1-0.4,3,2,3c9.6-0.1,19.3-0.1,28.9,0c2.2,0,2.4-0.9,1.8-2.8
	c-1.4-4.5-4.1-7.8-8.1-10.4c-1.7-1.1-3.1-0.4-4.7,0c-5.6,1.7-11.1-0.4-13.8-5.1c-2.6-4.5-1.8-10.7,1.9-14.3
	c3.9-3.7,10.2-4.2,14.7-1.2c4.5,3,6.4,8.8,4,14.1c-1.2,2.5-0.9,3.5,1.3,5c4.6,3.2,7.2,7.7,8.1,13.2c0.6,3.3-0.3,5-4.1,4.8
	C58.4,67.4,53,67.5,47.7,67.5z"/>
<path class="st2" d="M56.1,39.9c0.1,4.8-3.7,8.5-8.5,8.4c-4.6-0.1-8.2-3.6-8.3-8.2c-0.1-4.6,3.4-8.2,8-8.4
	C52.2,31.7,56,35.2,56.1,39.9z"/>
</svg>
