<?xml version="1.0" encoding="utf-8"?>
<!-- Generator: Adobe Illustrator 19.0.0, SVG Export Plug-In . SVG Version: 6.00 Build 0)  -->
<svg version="1.1" id="Layer_1" xmlns="http://www.w3.org/2000/svg" xmlns:xlink="http://www.w3.org/1999/xlink" x="0px" y="0px"
	 viewBox="0 0 1105.9 668.5" style="enable-background:new 0 0 1105.9 668.5;" xml:space="preserve">
<style type="text/css">
	.st0{fill:url(#XMLID_42_);}
	.st1{fill:#231F20;}
	.st2{fill:#52C3C6;}
	.st3{fill:none;stroke:#FFFFFF;stroke-width:30;stroke-miterlimit:10;}
</style>
<g id="XMLID_248_">
	<linearGradient id="XMLID_42_" gradientUnits="userSpaceOnUse" x1="401.0034" y1="184.6306" x2="704.9462" y2="184.6306">
		<stop  offset="2.075685e-002" style="stop-color:#52C3C6"/>
		<stop  offset="0.9892" style="stop-color:#53C2DA"/>
	</linearGradient>
	<path id="XMLID_249_" class="st0" d="M667.5,256c23.3-27,37.5-62.4,37.5-101.1c0-84.9-68-153.7-152-153.7
		c-83.9,0-152,68.8-152,153.7c0,80.3,60.8,146.1,138.4,153.1v60l95.8-79.1C649,277.2,658.1,266.9,667.5,256L667.5,256L667.5,256z"/>
</g>
<g id="XMLID_242_">
	<path id="XMLID_41_" class="st1" d="M299.4,496.5V628h-15.2l-78-98v98h-18.6V496.5h15.2l78,98.1v-98.1H299.4z"/>
	<path id="XMLID_44_" class="st1" d="M436.8,528.4V628h-16.9v-15c-7.2,10.3-19.5,16.2-33.4,16.2c-25.4,0-42.3-14.1-42.3-43.4v-57.3
		H362v55.2c0,19.5,9.7,29.3,26.6,29.3c18.6,0,30.5-11.6,30.5-33.1v-51.5H436.8z"/>
	<path id="XMLID_46_" class="st1" d="M542.9,628l-28.4-38.1L485.7,628h-19.9l38.8-50.9l-37-48.6h19.9l27.1,35.9l26.9-35.9h19.5
		l-37.1,48.6l39.2,50.9H542.9z"/>
	<path id="XMLID_48_" class="st2" d="M699.4,542.3c0,28.6-20.4,45.8-54.2,45.8h-32.1V628h-18.6V496.5h50.7
		C679,496.5,699.4,513.8,699.4,542.3z M680.8,542.3c0-18.8-12.4-29.5-36.2-29.5h-31.6v59h31.6C668.4,571.8,680.8,561.1,680.8,542.3z
		"/>
	<path id="XMLID_51_" class="st2" d="M810.5,567.8V628h-16.9v-13.1c-5.9,9-16.9,14.3-32.3,14.3c-22.3,0-36.4-12-36.4-29.3
		c0-16,10.2-29.1,39.6-29.1h28.2v-3.6c0-15.2-8.7-24-26.4-24c-11.7,0-23.6,4.1-31.2,10.7l-7.4-13.5c10.2-8.3,24.9-12.8,40.7-12.8
		C795.2,527.5,810.5,540.6,810.5,567.8z M792.6,597.5v-13.9h-27.5c-17.6,0-22.7,7-22.7,15.4c0,10,8.2,16.2,21.7,16.2
		C777.6,615.2,788.2,609,792.6,597.5z"/>
	<path id="XMLID_54_" class="st2" d="M938,528.4l-47.7,109.5c-8.7,21-20.1,27.6-35.1,27.6c-9.5,0-19.1-3.2-25.3-9.2l7.6-13.5
		c4.8,4.7,11,7.3,17.6,7.3c8.5,0,13.9-3.9,18.8-15.4l3.2-6.9l-43.5-99.4h18.6l34.4,79.6l34-79.6H938z"/>
</g>
<ellipse id="XMLID_191_" class="st3" cx="551.9" cy="156.6" rx="75.4" ry="76.2"/>
</svg>
